<svg width="20" height="21" viewBox="0 0 20 21" fill="none" xmlns="http://www.w3.org/2000/svg">
<path d="M12.0151 5.07512C11.6184 5.00184 11.2541 5.255 11.1786 5.64224C11.1031 6.02947 11.357 6.40754 11.7429 6.48332C12.9048 6.70984 13.802 7.60922 14.0293 8.77508V8.77592C14.0941 9.11152 14.3895 9.35552 14.7298 9.35552C14.7754 9.35552 14.8211 9.35136 14.8676 9.34303C15.2535 9.26558 15.5074 8.88834 15.4319 8.50027C15.0925 6.75897 13.7522 5.41406 12.0151 5.07512Z" fill="#E21B33"/>
<path d="M11.9633 2.1736C11.7774 2.14695 11.5907 2.20191 11.4421 2.32017C11.2894 2.44008 11.194 2.6133 11.1732 2.80733C11.1292 3.19956 11.4122 3.55432 11.8039 3.59846C14.5053 3.89991 16.605 6.0043 16.9088 8.71411C16.9494 9.07719 17.254 9.35117 17.6175 9.35117C17.6449 9.35117 17.6715 9.34951 17.6989 9.34617C17.8889 9.32536 18.0582 9.23125 18.1777 9.08136C18.2964 8.93146 18.3503 8.74492 18.3288 8.55422C17.9503 5.17321 15.3336 2.54918 11.9633 2.1736Z" fill="#E21B33"/>
<path fill-rule="evenodd" clip-rule="evenodd" d="M9.1932 11.3103C12.5174 14.6336 13.2716 10.7889 15.3881 12.904C17.4286 14.944 18.6014 15.3527 16.0161 17.9373C15.6923 18.1975 13.6348 21.3286 6.40392 14.0997C-0.827817 6.87 2.3014 4.81037 2.56172 4.48662C5.1533 1.89487 5.55497 3.07449 7.59549 5.11444C9.71205 7.23041 5.86896 7.98701 9.1932 11.3103Z" fill="#E21B33"/>
</svg>
