<svg width="20" height="21" viewBox="0 0 20 21" fill="none" xmlns="http://www.w3.org/2000/svg">
<path d="M18.5956 9.22016C18.5244 7.04626 17.6262 4.9815 16.0844 3.44734C14.4584 1.82109 12.2975 0.925781 9.99999 0.925781C5.35968 0.925781 1.56812 4.61922 1.40468 9.22016C1.04688 9.37865 0.742722 9.63751 0.529067 9.96537C0.315412 10.2932 0.201428 10.676 0.200928 11.0673V13.3367C0.201507 13.8726 0.414645 14.3864 0.793578 14.7653C1.17251 15.1443 1.68629 15.3574 2.22218 15.358C2.5689 15.3576 2.90131 15.2196 3.14648 14.9745C3.39166 14.7293 3.52958 14.3969 3.52999 14.0502V10.3536C3.52999 9.67641 3.01062 9.12422 2.3503 9.05859C2.59405 5.05016 5.93093 1.86328 9.99999 1.86328C12.0475 1.86328 13.9728 2.66141 15.4219 4.11047C16.7525 5.44109 17.5312 7.17547 17.6484 9.05891C16.9887 9.12516 16.4703 9.67703 16.4703 10.3536V14.0498C16.4703 14.7327 16.9978 15.2883 17.6659 15.3461V16.2802C17.6653 16.7859 17.4642 17.2708 17.1065 17.6284C16.7488 17.986 16.2639 18.1872 15.7581 18.1877H14.3453C14.2501 17.91 14.0702 17.6691 13.8311 17.4988C13.5919 17.3285 13.3054 17.2374 13.0119 17.2383H11.5556C11.3466 17.2383 11.1459 17.2827 10.9622 17.3683C10.7161 17.482 10.5077 17.6636 10.3616 17.8919C10.2154 18.1201 10.1375 18.3854 10.1372 18.6564C10.1372 19.0358 10.285 19.392 10.5528 19.6586C10.6841 19.7909 10.8403 19.8959 11.0125 19.9673C11.1846 20.0388 11.3692 20.0753 11.5556 20.0748H13.0119C13.6156 20.0748 14.1478 19.6845 14.3462 19.1252H15.7581C17.3272 19.1252 18.6034 17.8489 18.6034 16.2802V15.1792C18.9591 15.0198 19.2612 14.7611 19.4733 14.4341C19.6854 14.1071 19.7985 13.7258 19.7991 13.3361V11.0667C19.7991 10.2436 19.3034 9.53484 18.5956 9.22016ZM2.59218 10.3536V14.0498C2.59218 14.2539 2.42624 14.4202 2.22187 14.4202C1.93454 14.4198 1.65907 14.3055 1.4559 14.1024C1.25273 13.8992 1.13845 13.6237 1.13812 13.3364V11.067C1.13845 10.7797 1.25273 10.5042 1.4559 10.3011C1.65907 10.0979 1.93454 9.98361 2.22187 9.98328C2.42624 9.98328 2.59218 10.1495 2.59218 10.3536ZM13.4822 18.757C13.4589 18.8647 13.3995 18.9611 13.3139 19.0304C13.2284 19.0996 13.1217 19.1376 13.0116 19.138H11.5553C11.4272 19.138 11.3069 19.088 11.215 18.9961C11.1703 18.9517 11.1348 18.8989 11.1107 18.8407C11.0865 18.7825 11.0742 18.72 11.0744 18.657C11.0747 18.5296 11.1255 18.4075 11.2156 18.3174C11.3057 18.2274 11.4279 18.1767 11.5553 18.1764H13.0116C13.1397 18.1764 13.26 18.2261 13.3516 18.318C13.4422 18.4083 13.4922 18.5289 13.4922 18.657C13.4925 18.6914 13.4887 18.7258 13.4822 18.757ZM18.8616 13.3364C18.8612 13.6237 18.7469 13.8992 18.5438 14.1024C18.3406 14.3055 18.0651 14.4198 17.7778 14.4202C17.6796 14.4201 17.5855 14.381 17.516 14.3116C17.4466 14.2422 17.4076 14.148 17.4075 14.0498V10.3536C17.4075 10.1495 17.5734 9.98328 17.7778 9.98328C18.0651 9.98361 18.3406 10.0979 18.5438 10.3011C18.7469 10.5042 18.8612 10.7797 18.8616 11.067V13.3364Z" fill="black"/>
<path d="M13.0354 13.4982C13.562 13.4976 14.0669 13.2882 14.4392 12.9158C14.8116 12.5434 15.0211 12.0386 15.0216 11.512V7.46477C15.0216 6.93539 14.8148 6.43664 14.4391 6.06102C14.0635 5.68539 13.5651 5.47852 13.0354 5.47852H6.96477C6.43816 5.47909 5.93328 5.68855 5.56091 6.06091C5.18855 6.43328 4.97909 6.93816 4.97852 7.46477V11.512C4.97909 12.0386 5.18855 12.5434 5.56091 12.9158C5.93328 13.2882 6.43816 13.4976 6.96477 13.4982H7.00195V14.547C7.00134 14.675 7.02604 14.8019 7.07465 14.9204C7.12326 15.0389 7.19481 15.1466 7.28518 15.2373C7.37556 15.328 7.48299 15.4 7.60128 15.4491C7.71957 15.4981 7.84639 15.5233 7.97445 15.5232C8.10243 15.5235 8.22915 15.4979 8.34705 15.4482C8.46495 15.3984 8.57162 15.3254 8.6607 15.2335L10.4054 13.4982H13.0354ZM9.88195 12.697L7.99383 14.5748C7.98539 14.5835 7.97914 14.5901 7.96133 14.5823C7.93977 14.5735 7.93977 14.5595 7.93977 14.547V13.0295C7.93977 12.9051 7.89038 12.7859 7.80247 12.698C7.71456 12.6101 7.59534 12.5607 7.47102 12.5607H6.96508C6.68703 12.5604 6.42047 12.4498 6.22387 12.2532C6.02726 12.0566 5.91666 11.79 5.91633 11.512V7.46477C5.91666 7.18672 6.02726 6.92016 6.22387 6.72355C6.42047 6.52695 6.68703 6.41635 6.96508 6.41602H13.0357C13.3151 6.41602 13.5779 6.52539 13.7766 6.72383C13.9754 6.92258 14.0845 7.1857 14.0845 7.46477V11.512C14.0841 11.79 13.9735 12.0566 13.7769 12.2532C13.5803 12.4498 13.3137 12.5604 13.0357 12.5607H10.2126C10.0885 12.5607 9.96977 12.6098 9.88195 12.697Z" fill="black"/>
<path d="M7.72281 8.87109C7.34156 8.87109 7.03125 9.18172 7.03125 9.56266C7.03125 9.94359 7.34187 10.2542 7.72281 10.2542C8.10437 10.2542 8.415 9.94359 8.415 9.56266C8.415 9.18172 8.10469 8.87109 7.72281 8.87109ZM9.99969 8.87109C9.61844 8.87109 9.30812 9.18172 9.30812 9.56266C9.30812 9.94359 9.61875 10.2542 9.99969 10.2542C10.3816 10.2542 10.6919 9.94359 10.6919 9.56266C10.6919 9.18172 10.3816 8.87109 9.99969 8.87109ZM12.2766 8.87109C11.8953 8.87109 11.585 9.18172 11.585 9.56266C11.585 9.94359 11.8956 10.2542 12.2766 10.2542C12.6581 10.2542 12.9688 9.94359 12.9688 9.56266C12.9688 9.18172 12.6581 8.87109 12.2766 8.87109Z" fill="black"/>
</svg>
