<svg width="43" height="43" viewBox="0 0 43 43" fill="none" xmlns="http://www.w3.org/2000/svg">
<path d="M43 21.5C43 9.62588 33.3741 0 21.5 0C9.62588 0 0 9.62588 0 21.5C0 33.3741 9.62588 43 21.5 43C33.3741 43 43 33.3741 43 21.5Z" fill="#FDE9EB"/>
<path fill-rule="evenodd" clip-rule="evenodd" d="M20.9847 25.3462C17.1171 25.3462 13.8142 25.931 13.8142 28.2729C13.8142 30.6148 17.0961 31.2205 20.9847 31.2205C24.8523 31.2205 28.1542 30.6348 28.1542 28.2938C28.1542 25.9529 24.8733 25.3462 20.9847 25.3462Z" stroke="#E21B33" stroke-width="1.5" stroke-linecap="round" stroke-linejoin="round"/>
<path fill-rule="evenodd" clip-rule="evenodd" d="M20.9846 22.0059C23.5227 22.0059 25.5799 19.9478 25.5799 17.4097C25.5799 14.8716 23.5227 12.8145 20.9846 12.8145C18.4465 12.8145 16.3885 14.8716 16.3885 17.4097C16.3799 19.9392 18.4237 21.9973 20.9523 22.0059H20.9846Z" stroke="#E21B33" stroke-width="1.42857" stroke-linecap="round" stroke-linejoin="round"/>
</svg>
