<svg width="85" height="84" viewBox="0 0 85 84" fill="none" xmlns="http://www.w3.org/2000/svg">
<g id="Frame">
<g id="Group">
<path id="Vector" d="M41.3321 59.4498C41.3359 56.6777 41.9073 53.9358 43.0111 51.393C44.1149 48.8501 45.7277 46.5603 47.7502 44.6645C48.1493 44.2779 48.57 43.9142 49.0102 43.5751C47.9103 43.1747 46.7885 42.8373 45.6502 42.5645C63.596 34.1041 57.9562 7.21099 37.8435 6.91699C17.7071 7.20049 12.1001 34.1461 30.063 42.5776C24.5919 43.8852 19.5401 46.5542 15.3767 50.3369C11.2133 54.1196 8.07355 58.8932 6.24898 64.2142C4.09123 69.9656 9.08135 76.5228 15.1569 76.3509H50.4107C47.6265 74.4955 45.342 71.9833 43.7586 69.036C42.1753 66.0886 41.342 62.7968 41.3321 59.4511V59.4498Z" fill="#E21B33"/>
<path id="Vector_2" d="M61.5905 41.8037C58.1022 41.805 54.6926 42.8405 51.7927 44.7793C48.8928 46.7181 46.6329 49.4732 45.2985 52.6962C43.9642 55.9192 43.6155 59.4655 44.2963 62.8867C44.9772 66.3079 46.6571 69.4505 49.1237 71.9171C51.5903 74.3837 54.7328 76.0636 58.154 76.7444C61.5752 77.4253 65.1215 77.0765 68.3445 75.7422C71.5676 74.4079 74.3226 72.1479 76.2614 69.2481C78.2002 66.3482 79.2357 62.9386 79.237 59.4503C79.2294 54.7725 77.3678 50.2884 74.06 46.9807C70.7523 43.673 66.2683 41.8113 61.5905 41.8037ZM72.0603 60.7628H51.0682C50.7201 60.7628 50.3862 60.6245 50.1401 60.3783C49.8939 60.1322 49.7557 59.7984 49.7557 59.4503C49.7557 59.1022 49.8939 58.7683 50.1401 58.5222C50.3862 58.2761 50.7201 58.1378 51.0682 58.1378H72.0603C72.4084 58.1378 72.7422 58.2761 72.9884 58.5222C73.2345 58.7683 73.3728 59.1022 73.3728 59.4503C73.3728 59.7984 73.2345 60.1322 72.9884 60.3783C72.7422 60.6245 72.4084 60.7628 72.0603 60.7628Z" fill="#E21B33"/>
</g>
</g>
</svg>
