<svg width="20" height="21" viewBox="0 0 20 21" fill="none" xmlns="http://www.w3.org/2000/svg">
<path d="M16.1042 8.38965C16.1042 8.38965 15.6517 14.0021 15.3892 16.3663C15.2642 17.4955 14.5667 18.1571 13.4242 18.178C11.25 18.2171 9.07332 18.2196 6.89999 18.1738C5.80082 18.1513 5.11499 17.4813 4.99249 16.3721C4.72832 13.9871 4.27832 8.38965 4.27832 8.38965" stroke="#E21B33" stroke-width="1.5" stroke-linecap="round" stroke-linejoin="round"/>
<path d="M17.2569 5.69987H3.12524" stroke="#E21B33" stroke-width="1.5" stroke-linecap="round" stroke-linejoin="round"/>
<path d="M14.534 5.69949C13.8798 5.69949 13.3165 5.23699 13.1881 4.59616L12.9856 3.58283C12.8606 3.11533 12.4373 2.79199 11.9548 2.79199H8.42731C7.94481 2.79199 7.52148 3.11533 7.39648 3.58283L7.19398 4.59616C7.06564 5.23699 6.50231 5.69949 5.84814 5.69949" stroke="#E21B33" stroke-width="1.5" stroke-linecap="round" stroke-linejoin="round"/>
</svg>
