<svg width="20" height="20" viewBox="0 0 20 20" fill="none" xmlns="http://www.w3.org/2000/svg">
<path fill-rule="evenodd" clip-rule="evenodd" d="M14.1158 2.5C15.2333 2.5 16.3083 2.94167 17.0992 3.73417C17.8908 4.525 18.3333 5.59167 18.3333 6.70833V13.2917C18.3333 15.6167 16.4417 17.5 14.1158 17.5H5.88334C3.55751 17.5 1.66667 15.6167 1.66667 13.2917V6.70833C1.66667 4.38333 3.54917 2.5 5.88334 2.5H14.1158ZM15.4417 7.95L15.5083 7.88333C15.7075 7.64167 15.7075 7.29167 15.4992 7.05C15.3833 6.92583 15.2242 6.85 15.0583 6.83333C14.8833 6.82417 14.7167 6.88333 14.5908 7L10.8333 10C10.35 10.4008 9.65751 10.4008 9.16667 10L5.41667 7C5.15751 6.80833 4.79917 6.83333 4.58334 7.05833C4.35834 7.28333 4.33334 7.64167 4.52417 7.89167L4.63334 8L8.42501 10.9583C8.89167 11.325 9.45751 11.525 10.05 11.525C10.6408 11.525 11.2167 11.325 11.6825 10.9583L15.4417 7.95Z" fill="#E21B33"/>
</svg>
