<svg width="20" height="21" viewBox="0 0 20 21" fill="none" xmlns="http://www.w3.org/2000/svg">
<path d="M15.5078 1.59668H4.49219C2.0152 1.59668 0 3.61188 0 6.08887V10.3857C0 12.6643 1.705 14.552 3.90625 14.8399V18.8165C3.90624 18.8934 3.92138 18.9696 3.95082 19.0407C3.98025 19.1118 4.0234 19.1764 4.0778 19.2308C4.1322 19.2852 4.19679 19.3284 4.26787 19.3578C4.33895 19.3873 4.41513 19.4024 4.49207 19.4024C4.64453 19.4024 4.79441 19.3429 4.90648 19.2308L9.25937 14.8779H15.5078C17.9848 14.8779 20 12.8627 20 10.3857V6.08887C20 3.61188 17.9848 1.59668 15.5078 1.59668ZM18.8281 10.3857C18.8281 12.2166 17.3386 13.7061 15.5078 13.7061H9.01668C8.86125 13.7061 8.71223 13.7678 8.60238 13.8777L5.07812 17.4019V14.292C5.07812 13.9684 4.81578 13.7061 4.49219 13.7061C2.66137 13.7061 1.17188 12.2166 1.17188 10.3857V6.08887C1.17188 4.25805 2.66137 2.76855 4.49219 2.76855H15.5078C17.3386 2.76855 18.8281 4.25805 18.8281 6.08887V10.3857Z" fill="black"/>
<path d="M7.13664 6.58789C7.37102 6.58789 7.50383 6.33789 7.50383 6.04883C7.50383 5.79883 7.39441 5.52539 7.13664 5.52539H4.42578C4.16012 5.52539 3.89453 5.65039 3.89453 5.90039V10.8612C3.89453 11.1113 4.19918 11.2363 4.50391 11.2363C4.80855 11.2363 5.11328 11.1113 5.11328 10.8612V8.84563H6.29293C6.55074 8.84563 6.66012 8.59563 6.66012 8.38469C6.66012 8.13469 6.5273 7.90813 6.29293 7.90813H5.11328V6.58785H7.13664V6.58789ZM10.3868 5.88477C10.3009 5.61133 9.9493 5.47852 9.58988 5.47852C9.23055 5.47852 8.87898 5.61133 8.79309 5.88477L7.34 10.6503C7.33215 10.6816 7.32437 10.7128 7.32437 10.7362C7.32437 11.0253 7.76969 11.2363 8.10562 11.2363C8.30094 11.2363 8.45719 11.1737 8.50402 11.0097L8.76969 10.0331H10.4181L10.6837 11.0097C10.7306 11.1737 10.8868 11.2363 11.0821 11.2363C11.4181 11.2363 11.8633 11.0253 11.8633 10.7362C11.8633 10.7128 11.8555 10.6816 11.8478 10.6503L10.3868 5.88477ZM9.01957 9.09562L9.58988 7.00191L10.1602 9.09562H9.01957ZM14.5585 5.52539C13.4804 5.52539 12.6445 6.01758 12.6445 7.3691V9.43938C12.6445 10.6269 13.293 11.1503 14.1835 11.2597V11.7128C14.1835 11.9628 14.3711 12.0878 14.5585 12.0878C14.7461 12.0878 14.9335 11.9628 14.9335 11.7128V11.2597C15.8242 11.1503 16.4804 10.6269 16.4804 9.43938V7.3691C16.4804 6.01758 15.6366 5.52539 14.5585 5.52539ZM15.2616 9.43938C15.2616 9.79875 15.1367 10.0253 14.9335 10.1425V9.79875C14.9335 9.54094 14.7461 9.43156 14.5585 9.43156C14.3711 9.43156 14.1835 9.54094 14.1835 9.79875V10.1425C13.9726 10.0253 13.8632 9.79875 13.8632 9.43938V7.3691C13.8632 6.83785 14.1211 6.58789 14.5585 6.58789C14.9961 6.58789 15.2616 6.83789 15.2616 7.3691V9.43938Z" fill="black"/>
</svg>
