<svg width="20" height="20" viewBox="0 0 20 20" fill="none" xmlns="http://www.w3.org/2000/svg">
<g clip-path="url(#clip0_886_8807)">
<path d="M10.3438 4.73438C10.1712 4.73438 10.0312 4.87428 10.0312 5.04688C10.0312 5.21947 10.1712 5.35938 10.3438 5.35938H11.3712C11.3733 6.10334 11.6147 6.79825 12.026 7.36547C11.5999 7.78078 11.0417 8.06428 10.4143 8.14306C10.243 8.16456 10.1216 8.32081 10.1431 8.49203C10.1629 8.65006 10.2975 8.76562 10.4528 8.76562C10.4657 8.76562 10.4789 8.76481 10.4921 8.76316C11.2469 8.66841 11.92 8.33166 12.4375 7.83706C12.955 8.33166 13.6282 8.66841 14.383 8.76316C14.3962 8.76481 14.4093 8.76562 14.4223 8.76562C14.5775 8.76562 14.7121 8.65003 14.732 8.49203C14.7535 8.32078 14.6321 8.16453 14.4608 8.14306C13.8333 8.06428 13.2752 7.78081 12.8491 7.36547C13.2603 6.79822 13.5018 6.10334 13.5039 5.35938H14.5312C14.7038 5.35938 14.8438 5.21947 14.8438 5.04688C14.8438 4.87428 14.7038 4.73438 14.5312 4.73438H12.75V3.92188C12.75 3.74928 12.6101 3.60938 12.4375 3.60938C12.2649 3.60938 12.125 3.74928 12.125 3.92188V4.73438H10.3438ZM12.4375 6.85947C12.1593 6.42334 11.9982 5.90784 11.9963 5.35938H12.8787C12.8768 5.90784 12.7157 6.42334 12.4375 6.85947Z" fill="black"/>
<path d="M16.3426 2H13.8438C13.6712 2 13.5312 2.13991 13.5312 2.3125C13.5312 2.48509 13.6712 2.625 13.8438 2.625H16.3426C16.9119 2.625 17.375 3.08816 17.375 3.65747V8.71756C17.375 9.28684 16.9118 9.75 16.3425 9.75C16.17 9.75 16.03 9.88991 16.03 10.0625V11.3848L14.2029 9.82484C14.1463 9.77653 14.0744 9.75 14 9.75H8.53244C7.96312 9.75 7.5 9.28684 7.5 8.71753V3.65747C7.5 3.08816 7.96312 2.625 8.53244 2.625H11.0312C11.2038 2.625 11.3438 2.48509 11.3438 2.3125C11.3438 2.13991 11.2038 2 11.0312 2H8.53244C7.61853 2 6.875 2.74353 6.875 3.65747V7.625H3.65744C2.74353 7.625 2 8.36853 2 9.28247V14.3426C2 15.1497 2.57994 15.8239 3.34494 15.9705V17.6875C3.34494 17.8094 3.41588 17.9202 3.52659 17.9713C3.56844 17.9906 3.61306 18 3.65741 18C3.73044 18 3.80266 17.9744 3.86038 17.9252L6.11525 16H11.4675C12.3815 16 13.125 15.2565 13.125 14.3425V10.375H13.8848L16.1396 12.3002C16.1973 12.3494 16.2696 12.375 16.3426 12.375C16.3869 12.375 16.4316 12.3656 16.4734 12.3463C16.5841 12.2952 16.6551 12.1844 16.6551 12.0625L16.6551 10.3455C17.4201 10.1989 18 9.52466 18 8.71756V3.65747C18 2.74353 17.2565 2 16.3426 2V2ZM7.56759 10.7346L8.18672 12.3751H6.94281L7.56759 10.7346ZM12.5 14.3425C12.5 14.9118 12.0369 15.375 11.4676 15.375H6C5.92559 15.375 5.85366 15.4015 5.79709 15.4498L3.96994 17.0098V15.6875C3.96994 15.5149 3.83 15.375 3.65744 15.375C3.08812 15.375 2.625 14.9118 2.625 14.3425V9.28247C2.625 8.71316 3.08812 8.25 3.65744 8.25H6.875V8.71753C6.875 9.13466 7.03022 9.51597 7.28547 9.80762C7.25163 9.84281 7.22394 9.88462 7.20463 9.93181C7.20366 9.93419 7.20269 9.93656 7.20181 9.93897L5.86419 13.4511C5.80275 13.6124 5.88369 13.7929 6.04497 13.8543C6.20625 13.9157 6.38678 13.8348 6.44822 13.6735L6.70472 13.0001H8.42253L8.67634 13.6726C8.72356 13.7978 8.84244 13.8749 8.96875 13.8749C9.00541 13.8749 9.04269 13.8684 9.07903 13.8547C9.2405 13.7937 9.32197 13.6134 9.26103 13.4519L8.07547 10.3104C8.22072 10.3522 8.37388 10.375 8.53234 10.375H12.5V14.3425Z" fill="black"/>
<path d="M12.4375 2.625C12.5197 2.625 12.6003 2.59156 12.6584 2.53344C12.7166 2.47531 12.75 2.39469 12.75 2.3125C12.75 2.23031 12.7166 2.14969 12.6584 2.09156C12.6003 2.03344 12.5197 2 12.4375 2C12.3553 2 12.2747 2.03344 12.2166 2.09156C12.1584 2.14969 12.125 2.23031 12.125 2.3125C12.125 2.39469 12.1584 2.47531 12.2166 2.53344C12.2747 2.59156 12.3553 2.625 12.4375 2.625Z" fill="black"/>
</g>
<defs>
<clipPath id="clip0_886_8807">
<rect width="16" height="16" fill="white" transform="translate(2 2)"/>
</clipPath>
</defs>
</svg>
