<svg width="20" height="20" viewBox="0 0 20 20" fill="none" xmlns="http://www.w3.org/2000/svg">
<path fill-rule="evenodd" clip-rule="evenodd" d="M14.1159 2.5C15.2334 2.5 16.3084 2.94167 17.0992 3.73417C17.8909 4.525 18.3334 5.59167 18.3334 6.70833V13.2917C18.3334 15.6167 16.4417 17.5 14.1159 17.5H5.88341C3.55758 17.5 1.66675 15.6167 1.66675 13.2917V6.70833C1.66675 4.38333 3.54925 2.5 5.88341 2.5H14.1159ZM15.4417 7.95L15.5084 7.88333C15.7076 7.64167 15.7076 7.29167 15.4992 7.05C15.3834 6.92583 15.2242 6.85 15.0584 6.83333C14.8834 6.82417 14.7167 6.88333 14.5909 7L10.8334 10C10.3501 10.4008 9.65758 10.4008 9.16675 10L5.41675 7C5.15758 6.80833 4.79925 6.83333 4.58341 7.05833C4.35841 7.28333 4.33341 7.64167 4.52425 7.89167L4.63341 8L8.42508 10.9583C8.89175 11.325 9.45758 11.525 10.0501 11.525C10.6409 11.525 11.2167 11.325 11.6826 10.9583L15.4417 7.95Z" fill="#E21B33"/>
</svg>
