<svg width="20" height="20" viewBox="0 0 20 20" fill="none" xmlns="http://www.w3.org/2000/svg">
<path d="M19.2081 4.41295L10.1274 0.0291201C10.0876 0.00995399 10.0441 0 9.99999 0C9.95588 0 9.91235 0.00995399 9.87263 0.0291201L0.791807 4.41295C0.742191 4.4369 0.700335 4.47437 0.671046 4.52103C0.641757 4.5677 0.62622 4.62168 0.626221 4.67678V15.3232C0.62622 15.3783 0.641757 15.4323 0.671046 15.479C0.700335 15.5256 0.742191 15.5631 0.791807 15.5871L9.87259 19.9709C9.91232 19.99 9.95586 20 9.99997 20C10.0441 20 10.0876 19.99 10.1274 19.9709L19.2081 15.5871C19.2578 15.5631 19.2996 15.5256 19.3289 15.479C19.3582 15.4323 19.3737 15.3783 19.3737 15.3232V4.67682C19.3737 4.62171 19.3582 4.56773 19.3289 4.52106C19.2996 4.47438 19.2578 4.43691 19.2081 4.41295ZM9.99997 0.6183L18.4069 4.67678L15.9699 5.85326C15.9545 5.8412 15.9378 5.83073 15.9203 5.82201L7.57048 1.79115L9.99997 0.6183ZM6.90884 2.1224L15.3035 6.17498L13.5842 7.00502L5.19298 2.95408L6.90884 2.1224ZM15.4999 6.73076V9.79896L13.894 10.5743V7.50607L15.4999 6.73076ZM18.7878 15.1394L10.2929 19.2403V9.24447L12.3192 8.26627C12.3539 8.24954 12.3849 8.22615 12.4105 8.19744C12.4361 8.16873 12.4558 8.13525 12.4685 8.09892C12.4811 8.06259 12.4865 8.02413 12.4843 7.98572C12.4821 7.94731 12.4724 7.9097 12.4557 7.87506C12.4389 7.84041 12.4156 7.8094 12.3868 7.78379C12.3581 7.75818 12.3247 7.73848 12.2883 7.72581C12.252 7.71314 12.2135 7.70775 12.1751 7.70995C12.1367 7.71214 12.0991 7.72188 12.0645 7.73861L9.99997 8.73529L9.18763 8.3431C9.15298 8.32637 9.11538 8.31662 9.07697 8.31441C9.03855 8.31221 9.00008 8.3176 8.96375 8.33027C8.92742 8.34295 8.89394 8.36265 8.86523 8.38826C8.83652 8.41388 8.81314 8.4449 8.79642 8.47955C8.77969 8.5142 8.76995 8.5518 8.76775 8.59021C8.76555 8.62862 8.77095 8.66709 8.78362 8.70341C8.79629 8.73974 8.81599 8.77322 8.84159 8.80193C8.8672 8.83064 8.89822 8.85403 8.93286 8.87076L9.707 9.24447V19.2403L1.21216 15.1393V5.14353L7.68091 8.26639C7.72054 8.28561 7.76401 8.2956 7.80806 8.2956C7.87445 8.29569 7.9389 8.27322 7.99085 8.23187C8.0428 8.19053 8.07916 8.13277 8.09399 8.06806C8.10881 8.00334 8.10122 7.93551 8.07245 7.87568C8.04368 7.81585 7.99544 7.76756 7.93563 7.73873L1.59306 4.67678L4.50341 3.27178L13.304 7.52033C13.3052 7.52213 13.3067 7.52373 13.308 7.52549V11.0411C13.308 11.0907 13.3206 11.1394 13.3446 11.1828C13.3687 11.2262 13.4033 11.2628 13.4453 11.2892C13.4873 11.3155 13.5353 11.3308 13.5848 11.3335C13.6343 11.3363 13.6837 11.3264 13.7284 11.3049L15.9203 10.2467C15.9699 10.2228 16.0118 10.1853 16.041 10.1387C16.0703 10.092 16.0859 10.038 16.0859 9.98291V6.44795L18.7878 5.14357V15.1394Z" fill="#E21B33" stroke="#E21B33" stroke-width="0.2"/>
<path d="M3.62992 14.0031L2.29731 13.3598C2.22733 13.326 2.14681 13.3214 2.07344 13.347C2.00008 13.3726 1.93988 13.4263 1.9061 13.4962C1.87231 13.5662 1.86771 13.6467 1.8933 13.7201C1.91888 13.7935 1.97257 13.8537 2.04254 13.8874L3.37516 14.5308C3.41479 14.55 3.45826 14.56 3.50231 14.56C3.55744 14.56 3.61147 14.5445 3.65818 14.5152C3.70488 14.4859 3.74237 14.444 3.76633 14.3943C3.78306 14.3597 3.79281 14.3221 3.79501 14.2837C3.79721 14.2453 3.79183 14.2068 3.77916 14.1705C3.76649 14.1341 3.7468 14.1007 3.72119 14.0719C3.69558 14.0432 3.66457 14.0198 3.62992 14.0031ZM4.85637 13.2048L2.29914 11.9703C2.22934 11.9378 2.14954 11.934 2.07701 11.9599C2.00448 11.9858 1.94505 12.0392 1.91157 12.1085C1.8781 12.1779 1.87327 12.2576 1.89813 12.3305C1.92299 12.4034 1.97554 12.4635 2.04442 12.498L4.60164 13.7325C4.64128 13.7517 4.68475 13.7617 4.72879 13.7617C4.7952 13.7618 4.85967 13.7393 4.91163 13.698C4.9636 13.6567 4.99998 13.5989 5.0148 13.5342C5.02963 13.4694 5.02203 13.4016 4.99324 13.3417C4.96446 13.2819 4.9162 13.2336 4.85637 13.2048Z" fill="#E21B33" stroke="#E21B33" stroke-width="0.2"/>
</svg>
