<svg width="281" height="281" viewBox="0 0 281 281" fill="none" xmlns="http://www.w3.org/2000/svg">
<path d="M152.392 212.857H93.8596V258.003H152.392V212.857Z" fill="#EBEBEB"/>
<path d="M137.729 257.688C137.651 257.688 137.583 247.623 137.583 235.208C137.583 222.793 137.651 212.728 137.729 212.728C137.808 212.728 137.875 222.793 137.875 235.208C137.875 247.623 137.808 257.688 137.729 257.688Z" fill="#E0E0E0"/>
<path d="M147.43 247.729H142.945V252.804H147.43V247.729Z" fill="#FAFAFA"/>
<path d="M118.368 212.976H111.72V222.608H118.368V212.976Z" fill="#E0E0E0"/>
<path d="M118.368 248.235H111.72V257.868H118.368V248.235Z" fill="#E0E0E0"/>
<path d="M258.604 201.539H184.797V258.464H258.604V201.539Z" fill="#EBEBEB"/>
<path d="M240.109 258.059C240.03 258.059 239.963 245.375 239.963 229.723C239.963 214.072 240.03 201.387 240.109 201.387C240.187 201.387 240.255 214.072 240.255 229.723C240.255 245.375 240.193 258.059 240.109 258.059Z" fill="#E0E0E0"/>
<path d="M252.344 245.504H246.684V251.899H252.344V245.504Z" fill="#FAFAFA"/>
<path d="M215.696 201.685H207.311V213.83H215.696V201.685Z" fill="#E0E0E0"/>
<path d="M215.696 246.145H207.311V258.289H215.696V246.145Z" fill="#E0E0E0"/>
<path d="M45.7805 203.213C48.7703 201.674 52.2885 201.471 55.6042 202.022C57.3858 202.314 59.2404 202.848 60.4543 204.186C61.6682 205.523 61.893 207.878 60.5049 209.03C59.6731 209.716 58.521 209.817 57.442 209.806C54.8455 209.772 51.9681 209.317 49.8943 210.879C48.7085 211.773 47.9217 213.251 46.5223 213.689C45.123 214.127 43.5775 213.301 42.8469 212.054C42.1709 210.753 42.022 209.241 42.431 207.833C42.5964 206.857 42.9847 205.933 43.5657 205.132C44.1466 204.33 44.9045 203.674 45.7805 203.213Z" fill="#EBEBEB"/>
<path d="M38.9353 190.001C40.7618 192.608 44.3136 191.749 45.9603 190.152C47.607 188.556 48.3038 186.252 48.9333 184.055C50.3832 179.025 51.8388 173.748 50.7654 168.628C50.5069 167.075 49.8242 165.624 48.7928 164.435C48.2706 163.851 47.6048 163.414 46.8616 163.167C46.1183 162.919 45.3233 162.87 44.5553 163.025C42.7625 163.497 41.6498 165.273 40.8461 166.919C38.4766 171.842 37.2363 177.232 37.2156 182.695C37.2156 185.241 37.5022 187.904 38.9353 190.001Z" fill="#EBEBEB"/>
<path d="M33.9224 193.744C35.9062 191.389 36.2828 187.961 35.4004 185.011C34.5181 182.06 32.523 179.554 30.2244 177.502C27.5209 175.098 24.3752 173.242 20.9627 172.04C19.6401 171.505 18.2174 171.264 16.7926 171.331C16.0818 171.372 15.3918 171.586 14.7825 171.954C14.1732 172.322 13.6632 172.834 13.297 173.445C12.3191 175.305 13.2576 177.558 14.2692 179.402C16.0507 182.645 18.0839 185.744 20.3501 188.669C22.1766 191.018 24.2841 193.339 27.0435 194.402C29.8029 195.464 32.7141 195.34 34.1865 193.412" fill="#EBEBEB"/>
<path d="M38.8118 229.352C38.9094 228.966 38.9659 228.57 38.9804 228.172C39.0647 227.306 39.1659 226.222 39.2951 224.935C39.4562 223.342 39.6982 221.759 40.0201 220.191C40.4424 218.275 41.0194 216.395 41.7455 214.571C42.4576 212.76 43.4205 211.057 44.6061 209.513C45.5753 208.258 46.809 207.232 48.2197 206.507C49.1791 206.034 50.2071 205.715 51.2657 205.563C51.6643 205.547 52.0599 205.489 52.4459 205.388C52.0481 205.345 51.6467 205.345 51.2489 205.388C50.1495 205.471 49.074 205.751 48.0736 206.214C46.5839 206.917 45.2777 207.956 44.2576 209.249C43.0168 210.814 42.0167 212.554 41.2902 214.414C40.5651 216.26 40.001 218.164 39.6042 220.107C39.2985 221.695 39.0864 223.299 38.9692 224.912C38.868 226.289 38.8287 227.402 38.8118 228.172C38.7704 228.564 38.7704 228.96 38.8118 229.352Z" fill="#E0E0E0"/>
<path d="M39.0366 226.868C39.0699 226.683 39.0813 226.494 39.0703 226.306C39.0703 225.89 39.0703 225.367 39.0703 224.732C39.0703 223.367 39.0703 221.388 39.1377 218.949C39.2614 214.071 39.6997 208.833 40.4922 201.421C41.2621 194.457 42.2906 186.359 43.3808 181.093C43.6113 179.896 43.8473 178.817 44.0721 177.873C44.2969 176.929 44.4599 176.108 44.6341 175.451C44.8083 174.793 44.9039 174.327 45.005 173.922C45.06 173.739 45.0921 173.55 45.1006 173.36C45.0159 173.524 44.9517 173.697 44.9095 173.877C44.7858 174.276 44.6341 174.77 44.4486 175.383C44.2632 175.996 44.0384 176.85 43.8023 177.788C43.5663 178.727 43.2965 179.806 43.0436 181.003C41.6936 187.231 40.6786 193.527 40.0032 199.864C39.1939 207.282 38.8286 214.037 38.7949 218.927C38.7949 221.372 38.7949 223.355 38.8792 224.721C38.9186 225.356 38.9523 225.879 38.9748 226.289C38.972 226.484 38.9928 226.678 39.0366 226.868Z" fill="#E0E0E0"/>
<path d="M39.0702 213.841C39.113 213.293 39.113 212.742 39.0702 212.194C39.0084 211.138 38.8623 209.614 38.5644 207.743C38.1968 205.555 37.7052 203.39 37.092 201.258C36.3832 198.633 35.4757 196.067 34.3775 193.581C32.4972 188.999 29.7987 184.798 26.414 181.183C25.8267 180.562 25.1997 179.98 24.5369 179.441C24.2503 179.193 23.9749 178.952 23.7388 178.761L23.042 178.261C22.6046 177.927 22.1403 177.63 21.6538 177.373C21.5751 177.479 23.6152 178.682 26.1892 181.419C29.4632 185.068 32.09 189.249 33.956 193.783C35.0353 196.253 35.946 198.794 36.6817 201.387C37.2997 203.499 37.8118 205.641 38.216 207.805C38.5532 209.654 38.778 211.177 38.8679 212.211C38.8919 212.759 38.9596 213.304 39.0702 213.841Z" fill="#E0E0E0"/>
<path d="M25.6047 234.837L26.9086 252.726H49.8888L51.1926 234.837H25.6047Z" fill="#EBEBEB"/>
<path d="M53.9295 227.79H23.3848V234.838H53.9295V227.79Z" fill="#EBEBEB"/>
<path d="M23.3848 252.04V253.99H24.8235H53.4293V252.04H23.3848Z" fill="#E0E0E0"/>
<path d="M26.2285 257.216L24.8235 253.777H52.3334L50.6924 257.216H26.2285Z" fill="#E0E0E0"/>
<path d="M50.7654 240.682C50.7367 240.742 50.7008 240.799 50.6586 240.851C50.5687 240.969 50.4507 241.12 50.3158 241.306L48.9782 242.992L48.9164 243.071L48.8602 242.992L45.5725 238.445H45.758L42.5209 243.026L42.4197 243.172L42.3073 243.037L38.4688 238.468H38.688L38.4801 238.738L35.0463 243.037L34.9282 243.183L34.8271 243.031L31.5843 238.451H31.7754L27.7852 242.992L27.7178 243.076L27.6616 242.981L26.4139 240.912C26.2791 240.688 26.1779 240.502 26.0936 240.35C26.0512 240.288 26.0172 240.22 25.9924 240.148C26.045 240.202 26.0904 240.262 26.1273 240.328L26.4814 240.862L27.7908 242.924H27.6672L31.6012 238.327L31.6967 238.209L31.7867 238.333L35.0575 242.896H34.8439L38.2665 238.586C38.3396 238.496 38.4126 238.406 38.4745 238.322L38.5869 238.181L38.6993 238.316L42.5265 242.896H42.3129L45.5838 238.339L45.6793 238.204L45.7692 238.339C47.0674 240.187 48.169 241.755 48.9895 242.936H48.8715L50.2652 241.25C50.417 241.075 50.5406 240.935 50.6361 240.817C50.6759 240.769 50.7191 240.724 50.7654 240.682Z" fill="#F5F5F5"/>
<path d="M51.513 234.719C51.513 234.798 45.7525 234.865 38.6545 234.865C31.5564 234.865 25.7959 234.798 25.7959 234.719C25.7959 234.64 31.5508 234.579 38.6545 234.579C45.7581 234.579 51.513 234.64 51.513 234.719Z" fill="#F5F5F5"/>
<path d="M212.673 31.9223L207.964 31.9478L208.091 55.3828L212.8 55.3573L212.673 31.9223Z" fill="#E0E0E0"/>
<path d="M179.359 31.9843L167.164 32.0503L167.234 44.9873L179.429 44.9214L179.359 31.9843Z" fill="#EBEBEB"/>
<path d="M191.497 31.9189L179.302 31.9849L179.372 44.9219L191.567 44.8559L191.497 31.9189Z" fill="#F5F5F5"/>
<path d="M167.178 35.6307C175.286 35.6981 183.398 35.6607 191.513 35.5183C191.547 35.5183 191.58 35.5047 191.604 35.4804C191.628 35.4562 191.642 35.4233 191.642 35.389C191.642 35.3547 191.628 35.3219 191.604 35.2976C191.58 35.2734 191.547 35.2598 191.513 35.2598C183.409 35.2148 175.282 35.2598 167.178 35.4115C167.153 35.4172 167.131 35.4311 167.115 35.451C167.099 35.4709 167.091 35.4956 167.091 35.5211C167.091 35.5466 167.099 35.5713 167.115 35.5912C167.131 35.6111 167.153 35.625 167.178 35.6307Z" fill="#E0E0E0"/>
<path d="M181.721 44.7068L159.561 44.8267L159.618 55.3696L181.778 55.2497L181.721 44.7068Z" fill="#EBEBEB"/>
<path d="M203.773 44.5871L181.613 44.707L181.67 55.25L203.83 55.1301L203.773 44.5871Z" fill="#F5F5F5"/>
<path d="M159.574 47.7701C174.293 47.9331 189.062 47.7701 203.787 47.5509C203.821 47.5509 203.854 47.5373 203.878 47.5131C203.903 47.4888 203.916 47.4559 203.916 47.4216C203.916 47.3874 203.903 47.3545 203.878 47.3303C203.854 47.306 203.821 47.2924 203.787 47.2924C189.068 47.2137 174.293 47.2193 159.574 47.5453C159.545 47.5453 159.516 47.5571 159.495 47.5782C159.474 47.5993 159.462 47.6279 159.462 47.6577C159.462 47.6875 159.474 47.7161 159.495 47.7372C159.516 47.7582 159.545 47.7701 159.574 47.7701Z" fill="#E0E0E0"/>
<path d="M237.136 55.3794H151.285V59.156H237.136V55.3794Z" fill="#E0E0E0"/>
<path d="M168.825 57.1948H165.34V70.0815H168.825V57.1948Z" fill="#E0E0E0"/>
<path d="M220.849 57.1948H217.365V70.0815H220.849V57.1948Z" fill="#E0E0E0"/>
<path d="M217.268 23.1806L212.558 23.2061L212.733 55.4363L217.442 55.4108L217.268 23.1806Z" fill="#EBEBEB"/>
<path d="M224.623 29.1826L217.306 29.2222L217.447 55.3436L224.765 55.304L224.623 29.1826Z" fill="#F5F5F5"/>
<path d="M224.575 34.2258C222.143 34.3976 219.702 34.3976 217.269 34.2258C219.702 34.0615 222.143 34.0615 224.575 34.2258Z" fill="#E0E0E0"/>
<path d="M224.575 33.1582C223.36 33.2812 222.138 33.3225 220.917 33.2818C219.696 33.3222 218.473 33.2809 217.258 33.1582C219.69 32.9863 222.132 32.9863 224.564 33.1582H224.575Z" fill="#E0E0E0"/>
<path d="M224.575 51.3835C222.143 51.5553 219.702 51.5553 217.269 51.3835C219.702 51.2192 222.143 51.2192 224.575 51.3835Z" fill="#E0E0E0"/>
<path d="M224.575 50.2875C222.143 50.4519 219.702 50.4519 217.269 50.2875C219.702 50.1157 222.143 50.1157 224.575 50.2875Z" fill="#E0E0E0"/>
<path d="M221.035 47.8935C220.967 47.8935 220.911 45.2577 220.911 42.0094C220.911 38.761 220.967 36.1196 221.035 36.1196C221.102 36.1196 221.164 38.7554 221.164 42.0094C221.164 45.2634 221.108 47.8935 221.035 47.8935Z" fill="#E0E0E0"/>
<path d="M232.623 35.6084H224.66V55.3234H232.623V35.6084Z" fill="#EBEBEB"/>
<path d="M214.841 30.0501C215.589 30.0501 216.196 29.4438 216.196 28.6957C216.196 27.9477 215.589 27.3413 214.841 27.3413C214.093 27.3413 213.487 27.9477 213.487 28.6957C213.487 29.4438 214.093 30.0501 214.841 30.0501Z" fill="#E0E0E0"/>
<path d="M215.263 32.4219H214.426V51.5973H215.263V32.4219Z" fill="#E0E0E0"/>
<path d="M261.139 258.155C261.139 258.239 207.12 258.301 140.506 258.301C73.8918 258.301 19.8611 258.239 19.8611 258.155C19.8611 258.071 73.8693 258.009 140.506 258.009C207.142 258.009 261.139 258.076 261.139 258.155Z" fill="#263238"/>
<path d="M243.779 243.447C243.805 243.365 243.838 243.286 243.88 243.211C243.958 243.042 244.065 242.818 244.194 242.531C244.585 241.653 244.899 240.743 245.133 239.811C245.751 237.394 245.97 233.702 245.054 229.318C244.557 226.928 243.905 224.572 243.104 222.265C242.284 219.764 241.323 217.112 240.541 214.24C239.659 211.245 239.233 208.134 239.277 205.012C239.395 201.747 240.362 198.493 241.424 195.244C242.486 191.996 243.582 188.832 243.908 185.628C244.27 182.557 243.653 179.449 242.143 176.749C240.738 174.158 238.968 171.938 237.647 169.645C236.411 167.515 235.5 165.211 234.944 162.811C234.146 159.337 234.087 155.733 234.77 152.234C235.018 150.954 235.395 149.702 235.894 148.497C235.879 148.581 235.856 148.664 235.826 148.744L235.601 149.458C235.41 150.088 235.158 151.032 234.916 152.268C234.288 155.751 234.381 159.326 235.191 162.772C235.755 165.143 236.67 167.416 237.906 169.516C239.226 171.764 241.002 174.012 242.441 176.614C243.987 179.368 244.623 182.541 244.256 185.679C243.925 188.927 242.823 192.125 241.761 195.368C240.699 198.611 239.743 201.831 239.625 205.04C239.575 208.131 239.992 211.212 240.862 214.178C241.632 217.033 242.576 219.686 243.391 222.198C244.184 224.517 244.823 226.886 245.302 229.29C246.195 233.707 245.942 237.439 245.302 239.861C245.051 240.795 244.714 241.704 244.296 242.576L243.947 243.245C243.899 243.318 243.842 243.386 243.779 243.447Z" fill="#263238"/>
<path d="M239.446 171.91C239.446 171.91 236.759 163.306 241.581 158.27C241.619 158.23 241.666 158.2 241.72 158.185C241.773 158.17 241.829 158.171 241.882 158.186C241.935 158.201 241.983 158.23 242.02 158.271C242.057 158.312 242.082 158.362 242.093 158.416C242.351 159.838 242.671 164.166 239.446 171.91Z" fill="#E21B33"/>
<path d="M241.059 161.137C241.05 161.67 240.99 162.2 240.879 162.722C240.699 163.817 240.491 165.099 240.266 166.515C240.041 167.931 239.834 169.218 239.659 170.309C239.61 170.84 239.516 171.366 239.378 171.882C239.326 171.351 239.337 170.815 239.412 170.286C239.502 169.303 239.676 167.954 239.918 166.47C240.159 164.986 240.424 163.66 240.632 162.688C240.714 162.156 240.857 161.636 241.059 161.137Z" fill="#263238"/>
<path d="M242.604 192.204C242.604 192.204 244.251 183.341 250.871 181.149C250.923 181.131 250.979 181.128 251.033 181.14C251.087 181.152 251.137 181.178 251.177 181.217C251.216 181.255 251.244 181.304 251.258 181.358C251.271 181.411 251.27 181.468 251.253 181.52C250.815 182.886 249.078 186.859 242.604 192.204Z" fill="#E21B33"/>
<path d="M249.067 183.425C248.81 183.893 248.509 184.336 248.168 184.746L245.847 187.809L243.543 190.883C243.252 191.329 242.923 191.748 242.559 192.136C242.764 191.642 243.028 191.174 243.346 190.743C243.908 189.916 244.672 188.804 245.594 187.607C246.516 186.41 247.353 185.359 247.988 184.594C248.304 184.166 248.665 183.774 249.067 183.425Z" fill="#263238"/>
<path d="M240.817 214.419C240.817 214.419 239.816 205.461 245.515 201.443C245.559 201.409 245.612 201.387 245.667 201.382C245.723 201.377 245.779 201.388 245.828 201.413C245.878 201.438 245.919 201.477 245.947 201.526C245.976 201.574 245.989 201.629 245.987 201.685C245.97 203.129 245.459 207.434 240.817 214.419Z" fill="#E21B33"/>
<path d="M244.47 204.152C244.365 204.675 244.205 205.186 243.992 205.675L242.666 209.283C242.171 210.632 241.727 211.851 241.351 212.891C241.207 213.403 241.019 213.901 240.789 214.38C240.841 213.847 240.958 213.323 241.137 212.818C241.413 211.874 241.84 210.57 242.362 209.165C242.885 207.76 243.396 206.495 243.784 205.591C243.963 205.089 244.193 204.607 244.47 204.152Z" fill="#263238"/>
<path d="M245.802 236.776C245.802 236.776 245.127 227.784 250.961 223.974C251.007 223.942 251.06 223.924 251.116 223.922C251.171 223.919 251.226 223.932 251.274 223.959C251.323 223.986 251.363 224.025 251.39 224.074C251.417 224.122 251.43 224.177 251.427 224.232C251.36 225.677 250.697 229.965 245.802 236.776Z" fill="#E21B33"/>
<path d="M249.803 226.649C249.677 227.168 249.499 227.673 249.269 228.155C248.853 229.178 248.359 230.403 247.814 231.713C247.269 233.022 246.791 234.242 246.375 235.27C246.209 235.777 245.996 236.268 245.74 236.737C245.815 236.205 245.952 235.685 246.15 235.186C246.459 234.253 246.931 232.971 247.505 231.583C248.078 230.195 248.629 228.947 249.05 228.06C249.25 227.564 249.503 227.091 249.803 226.649Z" fill="#263238"/>
<path d="M235.579 164.351C235.579 164.351 227.61 160.17 227.436 153.207C227.435 153.152 227.45 153.099 227.477 153.051C227.505 153.004 227.544 152.965 227.592 152.939C227.64 152.912 227.694 152.899 227.749 152.901C227.803 152.903 227.856 152.919 227.902 152.948C229.088 153.769 232.381 156.601 235.579 164.351Z" fill="#E21B33"/>
<path d="M229.094 155.601C229.468 155.983 229.801 156.403 230.088 156.854C230.74 157.747 231.499 158.804 232.336 159.967L234.584 163.07C234.927 163.478 235.231 163.916 235.495 164.379C235.084 164.037 234.716 163.646 234.399 163.216C233.764 162.463 232.932 161.384 232.055 160.164C231.179 158.944 230.409 157.815 229.88 156.989C229.571 156.555 229.307 156.089 229.094 155.601Z" fill="#263238"/>
<path d="M244.161 182.824C244.161 182.824 235.933 179.143 235.354 172.191C235.35 172.136 235.36 172.081 235.385 172.032C235.409 171.983 235.447 171.942 235.493 171.913C235.54 171.884 235.593 171.868 235.648 171.868C235.703 171.867 235.757 171.882 235.804 171.91C237.035 172.657 240.491 175.276 244.161 182.824Z" fill="#E21B33"/>
<path d="M237.164 174.484C237.56 174.841 237.918 175.238 238.232 175.67L240.671 178.643L243.115 181.604C243.482 181.992 243.813 182.411 244.105 182.858C243.673 182.539 243.281 182.172 242.936 181.762C242.261 181.042 241.362 180.02 240.412 178.856C239.462 177.693 238.631 176.608 238.046 175.816C237.704 175.406 237.408 174.959 237.164 174.484Z" fill="#263238"/>
<path d="M239.412 203.444C239.412 203.444 233.792 196.419 236.416 189.956C236.437 189.905 236.472 189.861 236.516 189.829C236.56 189.796 236.612 189.777 236.667 189.772C236.721 189.767 236.776 189.778 236.825 189.802C236.874 189.827 236.916 189.865 236.945 189.911C237.726 191.131 239.597 195.042 239.412 203.444Z" fill="#E21B33"/>
<path d="M236.984 192.811C237.176 193.31 237.316 193.828 237.4 194.357C237.636 195.436 237.911 196.706 238.215 198.111C238.518 199.516 238.805 200.78 239.041 201.859C239.191 202.371 239.295 202.896 239.35 203.427C239.103 202.949 238.915 202.444 238.788 201.921C238.513 200.971 238.176 199.673 237.861 198.178C237.546 196.683 237.299 195.368 237.141 194.402C237.031 193.879 236.978 193.345 236.984 192.811Z" fill="#263238"/>
<path d="M245.032 227.672C245.032 227.672 236.866 223.856 236.405 216.898C236.4 216.843 236.41 216.787 236.435 216.737C236.46 216.687 236.498 216.645 236.545 216.616C236.593 216.586 236.647 216.571 236.703 216.571C236.759 216.572 236.813 216.587 236.86 216.617C238.069 217.387 241.48 220.068 245.032 227.672Z" fill="#E21B33"/>
<path d="M238.159 219.213C238.545 219.582 238.895 219.986 239.204 220.422L241.593 223.428L243.987 226.435C244.347 226.828 244.67 227.253 244.953 227.705C244.535 227.377 244.157 227 243.829 226.581C243.16 225.851 242.284 224.811 241.351 223.631C240.418 222.451 239.609 221.355 239.035 220.551C238.692 220.141 238.398 219.692 238.159 219.213Z" fill="#263238"/>
<path d="M261.279 192.243C261.279 192.243 261.279 192.311 261.279 192.44C261.279 192.569 261.279 192.783 261.279 193.002C261.279 193.564 261.223 194.278 261.184 195.188C261.083 197.11 260.931 199.791 260.757 202.994C260.195 206.254 258.509 209.867 256.261 213.38C254.625 215.965 252.889 218.314 251.427 220.501C250.094 222.419 248.896 224.428 247.842 226.514C247.144 227.923 246.58 229.394 246.156 230.909C246.015 231.443 245.903 231.864 245.841 232.151C245.815 232.3 245.775 232.447 245.723 232.589C245.725 232.438 245.744 232.287 245.779 232.14C245.819 231.847 245.903 231.42 246.032 230.875C246.41 229.334 246.947 227.837 247.634 226.407C248.678 224.305 249.875 222.282 251.214 220.354C252.686 218.151 254.389 215.797 256.019 213.228C258.239 209.733 259.891 206.175 260.515 202.966C260.74 199.768 260.925 197.093 261.077 195.171C261.15 194.261 261.212 193.536 261.257 192.991C261.257 192.766 261.296 192.575 261.313 192.429C261.294 192.368 261.283 192.306 261.279 192.243Z" fill="#263238"/>
<path d="M256.418 212.734C256.418 212.734 259.874 204.416 255.53 198.959C255.496 198.916 255.451 198.882 255.399 198.863C255.348 198.843 255.292 198.838 255.238 198.849C255.183 198.859 255.133 198.885 255.092 198.922C255.052 198.959 255.022 199.007 255.007 199.06C254.62 200.454 253.906 204.731 256.418 212.734Z" fill="#E21B33"/>
<path d="M255.789 201.865C255.938 202.378 256.03 202.905 256.064 203.438C256.188 204.416 256.323 205.771 256.429 207.271C256.536 208.772 256.587 210.132 256.587 211.121C256.62 211.655 256.588 212.191 256.491 212.717C256.394 212.192 256.347 211.66 256.351 211.127C256.278 210.003 256.188 208.727 256.092 207.294C255.997 205.861 255.907 204.562 255.828 203.461C255.763 202.931 255.749 202.397 255.789 201.865Z" fill="#263238"/>
<g opacity="0.3">
<path d="M256.418 212.734C256.418 212.734 259.874 204.416 255.53 198.959C255.496 198.916 255.451 198.882 255.399 198.863C255.348 198.843 255.292 198.838 255.238 198.849C255.183 198.859 255.133 198.885 255.092 198.922C255.052 198.959 255.022 199.007 255.007 199.06C254.62 200.454 253.906 204.731 256.418 212.734Z" fill="black"/>
</g>
<path d="M245.712 232.792C245.712 232.792 248.483 224.215 243.706 219.135C243.669 219.094 243.621 219.065 243.568 219.05C243.516 219.035 243.46 219.034 243.407 219.049C243.354 219.063 243.306 219.092 243.269 219.132C243.231 219.172 243.205 219.222 243.194 219.275C242.924 220.692 242.559 225.019 245.712 232.792Z" fill="#E21B33"/>
<path d="M244.2 221.99C244.395 222.489 244.531 223.01 244.605 223.541C244.807 224.502 245.049 225.845 245.279 227.329C245.51 228.812 245.667 230.167 245.751 231.15C245.824 231.681 245.834 232.219 245.779 232.752C245.646 232.236 245.556 231.71 245.51 231.178C245.347 230.083 245.156 228.801 244.948 227.379C244.74 225.957 244.537 224.676 244.386 223.58C244.272 223.057 244.21 222.525 244.2 221.99Z" fill="#263238"/>
<g opacity="0.3">
<path d="M245.712 232.792C245.712 232.792 248.483 224.215 243.706 219.135C243.669 219.094 243.621 219.065 243.568 219.05C243.516 219.035 243.46 219.034 243.407 219.049C243.354 219.063 243.306 219.092 243.269 219.132C243.231 219.172 243.205 219.222 243.194 219.275C242.924 220.692 242.559 225.019 245.712 232.792Z" fill="black"/>
</g>
<path d="M260.824 202.567C260.824 202.567 268.203 197.397 267.461 190.462C267.456 190.407 267.435 190.355 267.402 190.312C267.368 190.268 267.324 190.235 267.273 190.215C267.221 190.195 267.166 190.19 267.112 190.2C267.058 190.209 267.008 190.234 266.967 190.27C265.893 191.237 263.016 194.452 260.824 202.567Z" fill="#E21B33"/>
<g opacity="0.3">
<path d="M260.824 202.567C260.824 202.567 268.203 197.397 267.461 190.462C267.456 190.407 267.435 190.355 267.402 190.312C267.368 190.268 267.324 190.235 267.273 190.215C267.221 190.195 267.166 190.19 267.112 190.2C267.058 190.209 267.008 190.234 266.967 190.27C265.893 191.237 263.016 194.452 260.824 202.567Z" fill="black"/>
</g>
<path d="M266.124 193.052C265.977 193.567 265.772 194.063 265.511 194.53C265.09 195.418 264.477 196.632 263.763 197.958C263.05 199.285 262.364 200.459 261.836 201.291C261.576 201.758 261.261 202.192 260.897 202.584C261.095 202.089 261.339 201.615 261.628 201.168C262.156 200.195 262.78 199.06 263.466 197.796L265.298 194.424C265.528 193.941 265.804 193.481 266.124 193.052Z" fill="#263238"/>
<path d="M248.691 224.288C248.691 224.288 257.593 222.9 259.976 216.347C259.995 216.296 260 216.241 259.99 216.187C259.98 216.133 259.955 216.084 259.918 216.043C259.882 216.002 259.835 215.973 259.782 215.957C259.73 215.941 259.674 215.94 259.622 215.954C258.233 216.37 254.21 217.972 248.691 224.288Z" fill="#E21B33"/>
<g opacity="0.3">
<path d="M248.691 224.288C248.691 224.288 257.593 222.9 259.976 216.347C259.995 216.296 260 216.241 259.99 216.187C259.98 216.133 259.955 216.084 259.918 216.043C259.882 216.002 259.835 215.973 259.782 215.957C259.73 215.941 259.674 215.94 259.622 215.954C258.233 216.37 254.21 217.972 248.691 224.288Z" fill="black"/>
</g>
<path d="M257.638 218.084C257.277 218.478 256.874 218.83 256.435 219.135C255.665 219.753 254.58 220.574 253.361 221.45C252.141 222.327 251 223.075 250.157 223.592C249.718 223.898 249.242 224.149 248.741 224.339C249.14 223.984 249.571 223.666 250.028 223.389L253.164 221.175L256.294 218.927C256.711 218.599 257.161 218.317 257.638 218.084Z" fill="#263238"/>
<path d="M240.193 240.676L237.597 258.154H253.782L251.686 240.676H240.193Z" fill="#455A64"/>
<path d="M252.338 246.088C252.338 246.184 249.416 246.257 245.813 246.257C242.211 246.257 239.283 246.184 239.283 246.088C241.455 245.922 243.635 245.866 245.813 245.92C247.99 245.866 250.167 245.922 252.338 246.088Z" fill="#263238"/>
<path d="M252.653 247.482C252.653 247.578 249.635 247.651 245.909 247.651C242.182 247.651 239.165 247.578 239.165 247.482C239.165 247.387 242.182 247.313 245.909 247.313C249.635 247.313 252.653 247.387 252.653 247.482Z" fill="#263238"/>
<path d="M189.714 71.1156C189.714 71.1156 189.562 71.1156 189.27 71.1156C188.844 71.0902 188.416 71.0902 187.989 71.1156C186.338 71.2122 184.717 71.5924 183.195 72.2396C180.783 73.2505 178.684 74.8858 177.114 76.9772C176.146 78.2831 175.426 79.7556 174.99 81.3215C174.006 85.0516 174.538 89.0193 176.468 92.3592C176.994 93.2838 177.636 94.1375 178.379 94.8994C179.128 95.7066 180 96.3895 180.964 96.9226C181.953 97.479 183.072 97.7604 184.207 97.7375C185.376 97.7235 186.498 97.2701 187.348 96.4674C187.759 96.0365 188.082 95.5289 188.297 94.9735C188.512 94.418 188.615 93.8257 188.601 93.2303C188.593 91.9932 188.2 90.7893 187.477 89.7852C186.022 87.7339 183.661 86.357 181.149 85.6152C178.544 84.8835 175.794 84.8448 173.169 85.5028C171.829 85.8513 170.538 86.3647 169.325 87.0314C168.1 87.7226 166.988 88.5962 166.026 89.6222C165.796 89.8864 165.531 90.128 165.323 90.4203L164.688 91.2745C164.302 91.8765 163.957 92.5035 163.654 93.1516C163.053 94.4673 162.643 95.862 162.435 97.2935C162.027 100.153 162.416 103.07 163.559 105.724C164.651 108.316 166.554 110.485 168.982 111.906C170.159 112.578 171.473 112.976 172.826 113.069C174.152 113.143 175.471 112.827 176.62 112.158C177.759 111.529 178.66 110.541 179.182 109.348C179.675 108.173 179.709 106.855 179.278 105.656C178.834 104.499 178.107 103.471 177.165 102.666C176.251 101.876 175.196 101.264 174.057 100.862C171.835 100.162 169.457 100.121 167.212 100.744C165.111 101.313 163.182 102.388 161.592 103.875C160.144 105.262 159.041 106.969 158.371 108.859C157.201 112.139 157.255 115.732 158.523 118.975C159.513 121.397 161.105 123.525 163.148 125.157C164.436 126.19 165.87 127.025 167.403 127.636C167.931 127.833 168.341 127.979 168.622 128.057L169.038 128.192C169.038 128.192 168.892 128.164 168.611 128.085C168.196 127.974 167.787 127.841 167.386 127.686C165.833 127.103 164.38 126.28 163.081 125.247C161.003 123.616 159.379 121.477 158.366 119.037C157.075 115.763 157.009 112.133 158.18 108.815C158.851 106.895 159.966 105.162 161.434 103.757C163.047 102.24 165.005 101.141 167.139 100.553C169.431 99.9136 171.859 99.9526 174.13 100.666C175.303 101.075 176.388 101.702 177.328 102.514C178.307 103.346 179.061 104.411 179.52 105.611C179.982 106.864 179.962 108.244 179.463 109.483C178.909 110.723 177.969 111.75 176.783 112.411C175.592 113.105 174.225 113.437 172.849 113.367C171.463 113.27 170.117 112.859 168.915 112.164C166.431 110.723 164.481 108.517 163.356 105.875C162.189 103.174 161.788 100.202 162.199 97.2879C162.413 95.8274 162.833 94.4045 163.446 93.0617C163.755 92.3999 164.108 91.7596 164.503 91.1452L165.155 90.2741C165.363 89.9763 165.633 89.7121 165.869 89.4536C166.853 88.4081 167.99 87.5176 169.241 86.8122C170.482 86.1328 171.804 85.6117 173.175 85.2611C175.849 84.5908 178.653 84.6315 181.307 85.3791C183.869 86.1434 186.269 87.5428 187.781 89.6672C188.541 90.7132 188.954 91.9711 188.961 93.264C188.989 94.5363 188.509 95.7674 187.629 96.6866C186.73 97.5306 185.547 98.006 184.313 98.0185C183.133 98.0453 181.968 97.752 180.941 97.1699C179.955 96.6256 179.063 95.9253 178.3 95.0961C177.548 94.3171 176.896 93.4467 176.361 92.5053C174.396 89.1034 173.863 85.0605 174.877 81.2653C175.327 79.6813 176.064 78.1935 177.052 76.8761C178.651 74.7688 180.786 73.1289 183.234 72.1272C184.769 71.4925 186.403 71.1348 188.062 71.0706C188.492 71.0422 188.924 71.0422 189.355 71.0706L189.714 71.1156Z" fill="#263238"/>
<path d="M208.479 127.349H129.681V188.124H208.479V127.349Z" fill="#E21B33"/>
<path d="M129.681 127.349L144.237 140.927H221.698L208.479 127.349H129.681Z" fill="#E21B33"/>
<path d="M129.681 127.349L208.502 127.209H208.564L208.609 127.248L221.692 140.686L221.827 140.826L222.069 141.074H221.72L144.26 141.012H144.226L129.681 127.349L144.293 140.837H144.232L221.692 140.781L221.591 141.029L221.45 140.888L208.373 127.451L208.474 127.496L129.681 127.349Z" fill="#263238"/>
<path d="M153.353 155.376C152.926 155.392 152.522 155.574 152.228 155.884C151.935 156.195 151.775 156.608 151.782 157.035C151.79 157.462 151.965 157.869 152.27 158.168C152.575 158.467 152.985 158.635 153.412 158.635C153.839 158.635 154.249 158.467 154.554 158.168C154.859 157.869 155.034 157.462 155.041 157.035C155.049 156.608 154.889 156.195 154.595 155.884C154.301 155.574 153.898 155.392 153.471 155.376" fill="#263238"/>
<path d="M171.972 155.376C171.547 155.393 171.145 155.575 170.853 155.884C170.561 156.194 170.402 156.605 170.41 157.03C170.418 157.456 170.593 157.861 170.896 158.159C171.2 158.457 171.608 158.624 172.034 158.624C172.459 158.624 172.868 158.457 173.171 158.159C173.475 157.861 173.65 157.456 173.658 157.03C173.666 156.605 173.507 156.194 173.215 155.884C172.923 155.575 172.521 155.393 172.096 155.376" fill="#263238"/>
<path d="M172.079 169.921C171.754 168.68 171.226 167.5 170.516 166.431C169.727 165.287 168.714 164.316 167.538 163.576C166.119 162.634 164.464 162.111 162.762 162.064C161.06 162.017 159.379 162.45 157.911 163.312C156.698 163.989 155.634 164.902 154.78 165.998C154.012 167.028 153.421 168.179 153.032 169.404C153.037 169.313 153.052 169.222 153.077 169.134C153.131 168.881 153.201 168.631 153.285 168.387C153.593 167.484 154.043 166.636 154.617 165.875C155.464 164.728 156.542 163.77 157.781 163.065C159.288 162.166 161.018 161.713 162.772 161.761C164.525 161.809 166.229 162.355 167.684 163.334C168.88 164.103 169.902 165.114 170.685 166.302C171.219 167.094 171.623 167.967 171.882 168.887C171.951 169.136 172.006 169.39 172.045 169.646C172.064 169.736 172.076 169.828 172.079 169.921Z" fill="#263238"/>
<path opacity="0.5" d="M129.861 128.018L143.799 145.687H208.479V140.927H144.237L129.861 128.018Z" fill="black"/>
<path d="M192.94 187.989C192.861 187.989 192.794 177.418 192.794 164.385C192.794 151.352 192.861 140.781 192.94 140.781C193.019 140.781 193.092 151.347 193.092 164.385C193.092 177.424 193.024 187.989 192.94 187.989Z" fill="#263238"/>
<path d="M205.315 174.209H198.369V182.06H205.315V174.209Z" fill="#F5F5F5"/>
<path d="M129.681 127.349L113.507 140.927H129.681V127.349Z" fill="#E21B33"/>
<g opacity="0.4">
<path d="M129.681 127.349L113.507 140.927H129.681V127.349Z" fill="black"/>
</g>
<path d="M210.806 188.124H120.206V258.003H210.806V188.124Z" fill="#E21B33"/>
<path opacity="0.3" d="M210.806 188.124H120.206V258.003H210.806V188.124Z" fill="black"/>
<path d="M188.107 257.508C188.028 257.508 187.961 241.935 187.961 222.726C187.961 203.517 188.028 187.938 188.107 187.938C188.185 187.938 188.253 203.511 188.253 222.726C188.253 241.941 188.185 257.508 188.107 257.508Z" fill="#263238"/>
<path d="M203.124 242.099H196.177V249.95H203.124V242.099Z" fill="#F5F5F5"/>
<path d="M158.135 188.31H147.845V203.219H158.135V188.31Z" fill="#263238"/>
<path d="M158.135 242.885H147.845V257.795H158.135V242.885Z" fill="#263238"/>
<path d="M210.019 188.124H209.783H209.103L206.49 188.152L196.863 188.197L165.115 188.27L133.357 188.231L123.735 188.186L121.122 188.158L123.735 188.129L133.357 188.085L165.115 188.04L196.863 188.085L206.49 188.129L209.103 188.158H209.783L210.019 188.124Z" fill="#263238"/>
<path d="M54.7501 67.1422L44.8814 64.7143H44.9544C42.4063 66.3352 39.4597 67.2201 36.4401 67.2714C34.6525 67.2796 32.8737 67.0201 31.163 66.5015C28.1552 65.5357 25.4868 63.7291 23.4731 61.2952C21.4594 58.8612 20.1846 55.9016 19.7993 52.7662C19.4967 50.3949 19.7195 47.9861 20.4518 45.7105C21.1841 43.4349 22.408 41.3483 24.0368 39.5985C24.893 38.6581 25.8526 37.8173 26.8974 37.092C27.4257 36.7604 27.9539 36.4176 28.5047 36.131L29.3421 35.7264L29.758 35.524L30.1963 35.3667C32.453 34.4919 34.8738 34.1217 37.2888 34.282C40.5253 34.4922 43.6272 35.6557 46.2035 37.6259C48.7798 39.5962 50.7153 42.285 51.7659 45.3534C52.3496 47.0699 52.6569 48.8683 52.6763 50.6812C52.6904 53.6941 51.8716 56.6523 50.3103 59.2292V59.1393C53.0529 64.0905 54.4354 66.5914 54.7445 67.1422C54.4241 66.5802 52.991 64.1242 50.1529 59.2236V59.1786V59.1337C51.6582 56.5817 52.4356 53.6662 52.4009 50.7037C52.3749 48.9198 52.0637 47.1515 51.4793 45.4658C50.4401 42.4601 48.5372 39.8278 46.009 37.8984C43.4809 35.969 40.4397 34.8284 37.2663 34.6192C34.8989 34.4649 32.5263 34.8293 30.3143 35.687L29.8872 35.8388L29.477 36.0411L28.6564 36.4345C28.0944 36.7211 27.5999 37.0527 27.0772 37.3786C26.0526 38.0844 25.1101 38.9025 24.2672 39.8177C22.6682 41.5354 21.4663 43.5836 20.7467 45.8173C20.0271 48.0511 19.8072 50.4156 20.1028 52.7437C20.6238 57.0089 22.8121 60.8944 26.1892 63.551C27.6991 64.7473 29.4126 65.6612 31.2473 66.2486C32.9273 66.768 34.676 67.0313 36.4345 67.0298C39.4179 66.9978 42.3347 66.1442 44.8645 64.5626H44.8982H44.9601L54.7501 67.1422Z" fill="#263238"/>
<path d="M34.8441 43.4427L35.3443 51.7041C35.3643 52.03 35.5027 52.3373 35.7336 52.5681C35.9644 52.799 36.2717 52.9374 36.5976 52.9574C36.9405 52.9768 37.2777 52.8641 37.5401 52.6425C37.8024 52.4209 37.97 52.1072 38.0082 51.766L38.9243 43.4877C38.9402 43.3396 38.9245 43.1898 38.8782 43.0482C38.8318 42.9067 38.7559 42.7765 38.6555 42.6665C38.555 42.5565 38.4323 42.4691 38.2956 42.4101C38.1588 42.3512 38.011 42.3219 37.8621 42.3244H35.8557C35.715 42.3286 35.5765 42.3612 35.4486 42.4202C35.3207 42.4793 35.2061 42.5635 35.1116 42.668C35.0172 42.7725 34.9448 42.8949 34.8988 43.0281C34.8528 43.1612 34.8342 43.3022 34.8441 43.4427Z" fill="#E21B33"/>
<path d="M38.7781 57.5714C38.6524 57.9488 38.4176 58.2804 38.1034 58.5244C37.7892 58.7684 37.4098 58.9137 37.013 58.9421C36.6162 58.9705 36.2199 58.8807 35.8742 58.6839C35.5285 58.4871 35.2488 58.1923 35.0706 57.8367C34.8924 57.481 34.8236 57.0805 34.873 56.6858C34.9223 56.2911 35.0875 55.9199 35.3477 55.619C35.608 55.3182 35.9516 55.1012 36.3351 54.9956C36.7186 54.8899 37.1248 54.9004 37.5024 55.0255C37.7535 55.1087 37.9856 55.2406 38.1857 55.4137C38.3857 55.5867 38.5496 55.7975 38.6681 56.0339C38.7866 56.2704 38.8573 56.5279 38.8762 56.7917C38.8951 57.0555 38.8618 57.3205 38.7781 57.5714Z" fill="#E21B33"/>
</svg>
