<svg width="20" height="21" viewBox="0 0 20 21" fill="none" xmlns="http://www.w3.org/2000/svg">
<g clip-path="url(#clip0_886_8864)">
<path d="M15 20.5005C14.9167 20.5005 14.8333 20.4838 14.755 20.4505C14.5617 20.368 10 18.3813 10 14.2955V10.9471C10 10.8166 10.041 10.6893 10.117 10.5832C10.1931 10.477 10.3005 10.3974 10.4242 10.3555L14.7992 8.86713C14.9294 8.82294 15.0706 8.82294 15.2008 8.86713L19.5758 10.3555C19.6995 10.3974 19.8069 10.477 19.883 10.5832C19.959 10.6893 20 10.8166 20 10.9471V14.2955C20 18.3813 15.4383 20.368 15.245 20.4513C15.1674 20.4836 15.0841 20.5003 15 20.5005ZM11.25 11.3946V14.2946C11.25 17.0721 14.13 18.7421 15 19.1821C15.87 18.7421 18.75 17.0721 18.75 14.2946V11.3946L15 10.1188L11.25 11.3946Z" fill="black" stroke="white" stroke-width="0.2"/>
<path d="M14.7917 16.75C14.7096 16.7502 14.6283 16.7341 14.5524 16.7026C14.4766 16.6712 14.4078 16.6249 14.35 16.5667L12.6833 14.9C12.6253 14.8419 12.5792 14.773 12.5478 14.6972C12.5164 14.6213 12.5002 14.54 12.5002 14.4579C12.5002 14.3758 12.5164 14.2945 12.5478 14.2187C12.5792 14.1428 12.6253 14.0739 12.6833 14.0158C12.7414 13.9578 12.8103 13.9117 12.8862 13.8803C12.962 13.8489 13.0433 13.8327 13.1254 13.8327C13.2075 13.8327 13.2888 13.8489 13.3647 13.8803C13.4405 13.9117 13.5094 13.9578 13.5675 14.0158L14.725 15.1733L16.7917 12.4167C16.8404 12.3496 16.902 12.2928 16.9729 12.2498C17.0438 12.2067 17.1225 12.1782 17.2045 12.1659C17.2865 12.1536 17.3702 12.1577 17.4506 12.178C17.531 12.1983 17.6065 12.2345 17.6728 12.2843C17.7391 12.3341 17.7949 12.3966 17.8368 12.4682C17.8787 12.5398 17.9059 12.619 17.9169 12.7012C17.9278 12.7834 17.9224 12.8669 17.9007 12.947C17.8791 13.0271 17.8417 13.102 17.7908 13.1675L15.2908 16.5008C15.2371 16.5725 15.1686 16.6317 15.0899 16.6746C15.0113 16.7174 14.9243 16.7428 14.835 16.7492L14.7917 16.75ZM8.825 18H2.29167C1.68401 17.9996 1.10138 17.758 0.671701 17.3283C0.242026 16.8986 0.000441448 16.316 0 15.7083L0 2.79167C0.000441448 2.18401 0.242026 1.60138 0.671701 1.1717C1.10138 0.742026 1.68401 0.500441 2.29167 0.5L11.875 0.5C12.4827 0.500441 13.0653 0.742026 13.495 1.1717C13.9246 1.60138 14.1662 2.18401 14.1667 2.79167V7.31667C14.1667 7.48243 14.1008 7.6414 13.9836 7.75861C13.8664 7.87582 13.7074 7.94167 13.5417 7.94167C13.3759 7.94167 13.2169 7.87582 13.0997 7.75861C12.9825 7.6414 12.9167 7.48243 12.9167 7.31667V2.79167C12.9167 2.2175 12.4492 1.75 11.875 1.75H2.29167C1.7175 1.75 1.25 2.2175 1.25 2.79167V15.7083C1.25 16.2825 1.7175 16.75 2.29167 16.75H8.825C8.99076 16.75 9.14973 16.8158 9.26694 16.9331C9.38415 17.0503 9.45 17.2092 9.45 17.375C9.45 17.5408 9.38415 17.6997 9.26694 17.8169C9.14973 17.9342 8.99076 18 8.825 18Z" fill="black" stroke="white" stroke-width="0.2"/>
<path d="M11.0417 8.41732H3.125C2.95924 8.41732 2.80027 8.35147 2.68306 8.23426C2.56585 8.11705 2.5 7.95808 2.5 7.79232C2.5 7.62656 2.56585 7.46759 2.68306 7.35038C2.80027 7.23317 2.95924 7.16732 3.125 7.16732H11.0417C11.2074 7.16732 11.3664 7.23317 11.4836 7.35038C11.6008 7.46759 11.6667 7.62656 11.6667 7.79232C11.6667 7.95808 11.6008 8.11705 11.4836 8.23426C11.3664 8.35147 11.2074 8.41732 11.0417 8.41732ZM7.70833 11.7507H3.125C2.95924 11.7507 2.80027 11.6848 2.68306 11.5676C2.56585 11.4504 2.5 11.2914 2.5 11.1257C2.5 10.9599 2.56585 10.8009 2.68306 10.6837C2.80027 10.5665 2.95924 10.5007 3.125 10.5007H7.70833C7.87409 10.5007 8.03306 10.5665 8.15028 10.6837C8.26749 10.8009 8.33333 10.9599 8.33333 11.1257C8.33333 11.2914 8.26749 11.4504 8.15028 11.5676C8.03306 11.6848 7.87409 11.7507 7.70833 11.7507ZM6.875 5.08398H3.125C2.95924 5.08398 2.80027 5.01814 2.68306 4.90093C2.56585 4.78372 2.5 4.62474 2.5 4.45898C2.5 4.29322 2.56585 4.13425 2.68306 4.01704C2.80027 3.89983 2.95924 3.83398 3.125 3.83398H6.875C7.04076 3.83398 7.19973 3.89983 7.31694 4.01704C7.43415 4.13425 7.5 4.29322 7.5 4.45898C7.5 4.62474 7.43415 4.78372 7.31694 4.90093C7.19973 5.01814 7.04076 5.08398 6.875 5.08398Z" fill="black" stroke="white" stroke-width="0.2"/>
</g>
<defs>
<clipPath id="clip0_886_8864">
<rect width="20" height="20" fill="white" transform="translate(0 0.5)"/>
</clipPath>
</defs>
</svg>
