<svg width="20" height="20" viewBox="0 0 20 20" fill="none" xmlns="http://www.w3.org/2000/svg">
<path d="M14.5585 6.08789C14.121 6.08789 13.8632 6.33789 13.8632 6.8691V8.93937C13.8632 9.29875 13.9725 9.52531 14.1835 9.6425V9.29875C14.1835 9.04094 14.371 8.93156 14.5585 8.93156C14.746 8.93156 14.9335 9.04094 14.9335 9.29875V9.6425C15.1366 9.52531 15.2616 9.29875 15.2616 8.93937V6.8691C15.2616 6.33789 14.996 6.08789 14.5585 6.08789ZM9.01953 8.59562H10.1602L9.58984 6.50191L9.01953 8.59562Z" fill="#E21B33"/>
<path d="M15.5078 1.09668H4.49219C2.0152 1.09668 0 3.11188 0 5.58887V9.88574C0 12.1643 1.705 14.052 3.90625 14.3399V18.3165C3.90624 18.3934 3.92138 18.4696 3.95082 18.5407C3.98025 18.6118 4.0234 18.6764 4.0778 18.7308C4.1322 18.7852 4.19679 18.8284 4.26787 18.8578C4.33895 18.8873 4.41513 18.9024 4.49207 18.9024C4.64453 18.9024 4.79441 18.8429 4.90648 18.7308L9.25937 14.3779H15.5078C17.9848 14.3779 20 12.3627 20 9.88574V5.58887C20 3.11188 17.9848 1.09668 15.5078 1.09668ZM6.29301 7.40797C6.52738 7.40797 6.6602 7.63453 6.6602 7.88453C6.6602 8.09547 6.55078 8.34547 6.29301 8.34547H5.11336V10.3611C5.11336 10.6111 4.80863 10.7361 4.50398 10.7361C4.19926 10.7361 3.89461 10.6111 3.89461 10.3611V5.4002C3.89461 5.1502 4.1602 5.0252 4.42586 5.0252H7.13672C7.39453 5.0252 7.50391 5.29863 7.50391 5.54863C7.50391 5.8377 7.37109 6.0877 7.13672 6.0877H5.11332V7.40797H6.29301ZM11.0821 10.7361C10.8868 10.7361 10.7305 10.6736 10.6837 10.5095L10.418 9.53293H8.76965L8.50406 10.5095C8.45715 10.6736 8.3009 10.7361 8.10559 10.7361C7.76965 10.7361 7.32434 10.5251 7.32434 10.2361C7.32434 10.2126 7.33219 10.1814 7.33996 10.1501L8.79305 5.38457C8.87902 5.11113 9.23059 4.97832 9.58992 4.97832C9.94926 4.97832 10.3008 5.11113 10.3868 5.38457L11.8477 10.1501C11.8554 10.1814 11.8633 10.2126 11.8633 10.2361C11.8634 10.5251 11.418 10.7361 11.0821 10.7361ZM16.4804 8.93918C16.4804 10.1267 15.8242 10.6501 14.9336 10.7595V11.2126C14.9336 11.4626 14.7461 11.5876 14.5586 11.5876C14.3711 11.5876 14.1836 11.4626 14.1836 11.2126V10.7595C13.293 10.6501 12.6446 10.1267 12.6446 8.93918V6.86891C12.6446 5.51734 13.4804 5.0252 14.5586 5.0252C15.6367 5.0252 16.4804 5.51738 16.4804 6.86891L16.4804 8.93918Z" fill="#E21B33"/>
</svg>
