<svg width="20" height="21" viewBox="0 0 20 21" fill="none" xmlns="http://www.w3.org/2000/svg">
<path d="M12.0153 5.07512C11.6186 5.00184 11.2542 5.255 11.1787 5.64224C11.1032 6.02947 11.3571 6.40754 11.743 6.48332C12.9049 6.70984 13.8021 7.60922 14.0295 8.77508V8.77592C14.0942 9.11152 14.3897 9.35552 14.7299 9.35552C14.7756 9.35552 14.8212 9.35136 14.8677 9.34303C15.2536 9.26558 15.5076 8.88834 15.432 8.50027C15.0926 6.75897 13.7523 5.41406 12.0153 5.07512Z" fill="#E21B33"/>
<path d="M11.9634 2.17336C11.7775 2.14671 11.5908 2.20167 11.4422 2.31992C11.2895 2.43984 11.1941 2.61305 11.1733 2.80709C11.1293 3.19932 11.4123 3.55407 11.8041 3.59821C14.5054 3.89967 16.6051 6.00406 16.9089 8.71386C16.9495 9.07695 17.2541 9.35093 17.6176 9.35093C17.645 9.35093 17.6716 9.34926 17.699 9.34593C17.889 9.32511 18.0583 9.23101 18.1778 9.08111C18.2965 8.93122 18.3504 8.74468 18.3289 8.55397C17.9504 5.17296 15.3337 2.54893 11.9634 2.17336Z" fill="#E21B33"/>
<path fill-rule="evenodd" clip-rule="evenodd" d="M9.19312 11.3103C12.5174 14.6336 13.2715 10.7889 15.388 12.904C17.4286 14.944 18.6014 15.3527 16.016 17.9373C15.6922 18.1975 13.6347 21.3286 6.40384 14.0997C-0.827893 6.87 2.30133 4.81037 2.56165 4.48662C5.15323 1.89487 5.55489 3.07449 7.59541 5.11444C9.71198 7.23041 5.86889 7.98701 9.19312 11.3103Z" fill="#E21B33"/>
</svg>
