<svg width="85" height="84" viewBox="0 0 85 84" fill="none" xmlns="http://www.w3.org/2000/svg">
<g id="Frame" clip-path="url(#clip0_886_9037)">
<g id="Group">
<g id="Group_2">
<path id="Vector" d="M42.4533 83.4447C65.3684 83.4447 83.9447 64.8684 83.9447 41.9533C83.9447 19.0382 65.3684 0.461914 42.4533 0.461914C19.5382 0.461914 0.961914 19.0382 0.961914 41.9533C0.961914 64.8684 19.5382 83.4447 42.4533 83.4447Z" fill="#FFCA28"/>
<g id="Group_3">
<path id="Vector_2" d="M29.5447 37.8502C32.0908 37.8502 34.1549 35.7862 34.1549 33.24C34.1549 30.6939 32.0908 28.6299 29.5447 28.6299C26.9986 28.6299 24.9346 30.6939 24.9346 33.24C24.9346 35.7862 26.9986 37.8502 29.5447 37.8502Z" fill="#604323"/>
<path id="Vector_3" d="M55.3616 37.8502C57.9077 37.8502 59.9718 35.7862 59.9718 33.24C59.9718 30.6939 57.9077 28.6299 55.3616 28.6299C52.8155 28.6299 50.7515 30.6939 50.7515 33.24C50.7515 35.7862 52.8155 37.8502 55.3616 37.8502Z" fill="#604323"/>
<path id="Vector_4" d="M59.13 62.5563C58.8255 62.5569 58.5255 62.4819 58.2571 62.338C57.9887 62.1941 57.7602 61.9859 57.5921 61.732C54.2073 56.6341 48.5478 53.5905 42.4532 53.5905C36.3586 53.5905 30.6982 56.6341 27.3153 61.732C27.0449 62.1395 26.6236 62.4229 26.1442 62.5198C25.6648 62.6168 25.1665 62.5193 24.759 62.2488C24.3515 61.9783 24.0681 61.5571 23.9711 61.0777C23.8742 60.5983 23.9717 60.1 24.2422 59.6925C28.3111 53.5619 35.1194 49.9023 42.4532 49.9023C49.7871 49.9023 56.5953 53.5619 60.6643 59.6916C60.8488 59.9692 60.9546 60.2918 60.9704 60.6248C60.9862 60.9578 60.9115 61.2889 60.754 61.5829C60.5966 61.8768 60.3625 62.1225 60.0765 62.2939C59.7905 62.4653 59.4634 62.556 59.13 62.5563Z" fill="#604323"/>
</g>
<path id="Vector_5" d="M77.1062 19.1406C79.1903 24.3539 80.2597 29.9172 80.2568 35.5316C80.2568 59.9562 60.4562 79.7568 36.0316 79.7568C30.4172 79.7597 24.8539 78.6903 19.6406 76.6062C26.4082 81.0769 34.3426 83.4554 42.4535 83.4449C65.3688 83.4449 83.9449 64.8688 83.9449 41.9535C83.9554 33.8426 81.5769 25.9082 77.1062 19.1406Z" fill="#E7B622"/>
</g>
</g>
</g>
<defs>
<clipPath id="clip0_886_9037">
<rect width="84" height="84" fill="white" transform="translate(0.5)"/>
</clipPath>
</defs>
</svg>
