<svg width="20" height="21" viewBox="0 0 20 21" fill="none" xmlns="http://www.w3.org/2000/svg">
<g clip-path="url(#clip0_886_8836)">
<path d="M17.7084 20.5004H2.29178C1.02762 20.5004 0.000244141 19.4729 0.000244141 18.2088V6.12552C0.000244141 4.86136 1.02758 3.83398 2.29178 3.83398H5.20847C5.55347 3.83398 5.83347 4.11398 5.83347 4.45898C5.83347 4.80397 5.55347 5.08397 5.20847 5.08397H2.29178C1.71757 5.08397 1.25023 5.55135 1.25023 6.12552V18.2088C1.25023 18.7829 1.71761 19.2504 2.29178 19.2504H17.7084C18.2826 19.2504 18.7501 18.7829 18.7501 18.2088V11.1255C18.7501 10.7805 19.0301 10.5005 19.3751 10.5005C19.7201 10.5005 20 10.7805 20 11.1255V18.2088C20 19.4729 18.9725 20.5004 17.7084 20.5004Z" fill="black"/>
<path d="M5.6243 13.8227C5.57794 13.8229 5.53174 13.8172 5.4868 13.8059C5.20438 13.7401 5.00024 13.4984 5.00024 13.2085V11.9585C5.00024 7.47853 8.64521 3.83357 13.1252 3.83357H13.3334V1.12516C13.3335 1.00047 13.3709 0.878642 13.4406 0.775305C13.5104 0.671969 13.6095 0.59183 13.7251 0.545164C13.8406 0.498654 13.9674 0.487764 14.0892 0.513896C14.211 0.540028 14.3221 0.601986 14.4084 0.691803L19.8251 6.31675C20.0584 6.55846 20.0584 6.94174 19.8251 7.18346L14.4084 12.8084C14.2317 12.9926 13.9592 13.0493 13.7251 12.955C13.6095 12.9084 13.5104 12.8282 13.4406 12.7249C13.3709 12.6216 13.3335 12.4997 13.3334 12.375V9.66679H12.3435C9.72188 9.66679 7.36592 11.1234 6.19437 13.4675C6.0868 13.6843 5.86098 13.8227 5.6243 13.8227ZM13.1252 5.08356C9.62512 5.08356 6.72691 7.71263 6.30273 11.1C7.81756 9.41016 9.99012 8.41681 12.3435 8.41681H13.9584C14.3034 8.41681 14.5834 8.6968 14.5834 9.0418V10.8251L18.5075 6.7501L14.5834 2.67514V4.45856C14.5834 4.80356 14.3034 5.08356 13.9584 5.08356H13.1252Z" fill="black"/>
</g>
<defs>
<clipPath id="clip0_886_8836">
<rect width="19.9998" height="20" fill="white" transform="translate(0 0.5)"/>
</clipPath>
</defs>
</svg>
