<svg width="20" height="21" viewBox="0 0 20 21" fill="none" xmlns="http://www.w3.org/2000/svg">
<path d="M10.7 3.6H14.9C15.4304 3.6 15.9391 3.81071 16.3142 4.18578C16.6893 4.56086 16.9 5.06956 16.9 5.59999V15.4C16.9 15.9304 16.6893 16.4391 16.3142 16.8142C15.9391 17.1892 15.4304 17.4 14.9 17.4H10.7C10.5409 17.4 10.3883 17.3368 10.2757 17.2242C10.1632 17.1117 10.1 16.9591 10.1 16.8C10.1 16.6408 10.1632 16.4882 10.2757 16.3757C10.3883 16.2632 10.5409 16.2 10.7 16.2H14.9C15.1122 16.2 15.3156 16.1157 15.4657 15.9657C15.6157 15.8156 15.7 15.6121 15.7 15.4V5.59999C15.7 5.38782 15.6157 5.18434 15.4657 5.03431C15.3156 4.88428 15.1122 4.8 14.9 4.8H10.7C10.5409 4.8 10.3883 4.73678 10.2757 4.62426C10.1632 4.51174 10.1 4.35913 10.1 4.2C10.1 4.04087 10.1632 3.88826 10.2757 3.77574C10.3883 3.66321 10.5409 3.6 10.7 3.6Z" fill="#E21B33" stroke="white" stroke-width="0.2"/>
<path d="M6.92403 12.8766L6.92402 12.8766L6.92527 12.8778C6.98257 12.9332 7.02828 12.9994 7.05973 13.0726C7.09117 13.1458 7.10773 13.2245 7.10842 13.3042C7.10911 13.3838 7.09393 13.4628 7.06376 13.5366C7.03359 13.6103 6.98904 13.6773 6.93271 13.7336C6.87637 13.79 6.80938 13.8345 6.73564 13.8647C6.6619 13.8949 6.5829 13.91 6.50323 13.9093C6.42356 13.9087 6.34483 13.8921 6.27163 13.8607C6.19843 13.8292 6.13222 13.7835 6.07687 13.7262L6.07688 13.7262L6.07565 13.725L3.27567 10.925C3.27567 10.925 3.27566 10.925 3.27566 10.925C3.16319 10.8125 3.1 10.6599 3.1 10.5008C3.1 10.3417 3.16319 10.1891 3.27566 10.0766C3.27566 10.0766 3.27567 10.0766 3.27567 10.0766L6.07565 7.2766L6.07566 7.27661L6.07687 7.27536C6.13222 7.21805 6.19843 7.17234 6.27163 7.1409C6.34483 7.10945 6.42356 7.0929 6.50323 7.09221C6.5829 7.09152 6.6619 7.1067 6.73564 7.13687C6.80938 7.16704 6.87637 7.21159 6.93271 7.26792C6.98904 7.32426 7.03359 7.39125 7.06376 7.46499C7.09393 7.53872 7.10911 7.61773 7.10842 7.6974C7.10773 7.77707 7.09117 7.8558 7.05973 7.929C7.02828 8.0022 6.98257 8.06841 6.92527 8.12376L6.92526 8.12375L6.92403 8.12498L5.31893 9.73007L5.14822 9.90078H5.38964H13.4998C13.659 9.90078 13.8116 9.964 13.9241 10.0765C14.0366 10.189 14.0998 10.3417 14.0998 10.5008C14.0998 10.6599 14.0366 10.8125 13.9241 10.925C13.8116 11.0376 13.659 11.1008 13.4998 11.1008H5.38964H5.14822L5.31893 11.2715L6.92403 12.8766Z" fill="#E21B33" stroke="white" stroke-width="0.2"/>
</svg>
