<svg width="20" height="21" viewBox="0 0 20 21" fill="none" xmlns="http://www.w3.org/2000/svg">
<path d="M14.1667 19.4587H2.50008C2.11344 19.4582 1.74277 19.3044 1.46937 19.031C1.19598 18.7576 1.04219 18.387 1.04175 18.0003V3.00033C1.04219 2.61369 1.19598 2.24301 1.46937 1.96962C1.74277 1.69622 2.11344 1.54243 2.50008 1.54199H14.1667C14.5534 1.54243 14.9241 1.69622 15.1975 1.96962C15.4709 2.24301 15.6246 2.61369 15.6251 3.00033V12.167C15.6251 12.3328 15.5592 12.4917 15.442 12.6089C15.3248 12.7261 15.1658 12.792 15.0001 12.792C14.8343 12.792 14.6753 12.7261 14.5581 12.6089C14.4409 12.4917 14.3751 12.3328 14.3751 12.167V3.00033C14.3744 2.94527 14.3523 2.89266 14.3133 2.85373C14.2744 2.8148 14.2218 2.79264 14.1667 2.79199H2.50008C2.44503 2.79264 2.39242 2.8148 2.35349 2.85373C2.31455 2.89266 2.2924 2.94527 2.29175 3.00033V18.0003C2.2924 18.0554 2.31455 18.108 2.35349 18.1469C2.39242 18.1859 2.44503 18.208 2.50008 18.2087H14.1667C14.3233 18.1466 14.498 18.148 14.6536 18.2125C14.8092 18.2771 14.9335 18.3998 15.0001 18.5545C15.0325 18.629 15.0498 18.7092 15.0508 18.7904C15.0519 18.8716 15.0368 18.9523 15.0064 19.0276C14.976 19.1029 14.9309 19.1714 14.8737 19.2291C14.8166 19.2868 14.7485 19.3326 14.6734 19.3637C14.5122 19.4275 14.3402 19.4597 14.1667 19.4587Z" fill="black" stroke="white" stroke-width="0.2"/>
<path d="M12.0835 6.125H4.5835C4.41774 6.125 4.25876 6.05915 4.14155 5.94194C4.02434 5.82473 3.9585 5.66576 3.9585 5.5C3.9585 5.33424 4.02434 5.17527 4.14155 5.05806C4.25876 4.94085 4.41774 4.875 4.5835 4.875H12.0835C12.2493 4.875 12.4082 4.94085 12.5254 5.05806C12.6426 5.17527 12.7085 5.33424 12.7085 5.5C12.7085 5.66576 12.6426 5.82473 12.5254 5.94194C12.4082 6.05915 12.2493 6.125 12.0835 6.125ZM12.0835 9.45833H4.5835C4.41774 9.45833 4.25876 9.39248 4.14155 9.27527C4.02434 9.15806 3.9585 8.99909 3.9585 8.83333C3.9585 8.66757 4.02434 8.5086 4.14155 8.39139C4.25876 8.27418 4.41774 8.20833 4.5835 8.20833H12.0835C12.2493 8.20833 12.4082 8.27418 12.5254 8.39139C12.6426 8.5086 12.7085 8.66757 12.7085 8.83333C12.7085 8.99909 12.6426 9.15806 12.5254 9.27527C12.4082 9.39248 12.2493 9.45833 12.0835 9.45833ZM10.0002 12.7917H4.5835C4.41774 12.7917 4.25876 12.7258 4.14155 12.6086C4.02434 12.4914 3.9585 12.3324 3.9585 12.1667C3.9585 12.0009 4.02434 11.8419 4.14155 11.7247C4.25876 11.6075 4.41774 11.5417 4.5835 11.5417H10.0002C10.1659 11.5417 10.3249 11.6075 10.4421 11.7247C10.5593 11.8419 10.6252 12.0009 10.6252 12.1667C10.6252 12.3324 10.5593 12.4914 10.4421 12.6086C10.3249 12.7258 10.1659 12.7917 10.0002 12.7917ZM9.16683 16.125H4.5835C4.41774 16.125 4.25876 16.0592 4.14155 15.9419C4.02434 15.8247 3.9585 15.6658 3.9585 15.5C3.9585 15.3342 4.02434 15.1753 4.14155 15.0581C4.25876 14.9408 4.41774 14.875 4.5835 14.875H9.16683C9.33259 14.875 9.49156 14.9408 9.60877 15.0581C9.72598 15.1753 9.79183 15.3342 9.79183 15.5C9.79183 15.6658 9.72598 15.8247 9.60877 15.9419C9.49156 16.0592 9.33259 16.125 9.16683 16.125ZM15.0002 19.4583C14.2173 19.4583 13.452 19.2262 12.801 18.7912C12.1501 18.3563 11.6427 17.7381 11.3431 17.0148C11.0435 16.2915 10.9652 15.4956 11.1179 14.7278C11.2706 13.9599 11.6476 13.2546 12.2012 12.701C12.7548 12.1475 13.4601 11.7705 14.2279 11.6177C14.9958 11.465 15.7917 11.5434 16.515 11.843C17.2382 12.1426 17.8564 12.6499 18.2914 13.3009C18.7263 13.9518 18.9585 14.7171 18.9585 15.5C18.9574 16.5495 18.54 17.5557 17.7979 18.2977C17.0558 19.0398 16.0496 19.4572 15.0002 19.4583ZM15.0002 12.7917C14.4645 12.7917 13.9409 12.9505 13.4955 13.2481C13.0501 13.5457 12.703 13.9687 12.498 14.4636C12.293 14.9584 12.2394 15.503 12.3439 16.0284C12.4484 16.5537 12.7063 17.0363 13.0851 17.4151C13.4638 17.7938 13.9464 18.0518 14.4718 18.1563C14.9972 18.2608 15.5417 18.2072 16.0366 18.0022C16.5315 17.7972 16.9545 17.4501 17.2521 17.0047C17.5497 16.5593 17.7085 16.0357 17.7085 15.5C17.7076 14.782 17.422 14.0936 16.9143 13.5859C16.4065 13.0782 15.7182 12.7925 15.0002 12.7917Z" fill="black" stroke="white" stroke-width="0.2"/>
<path d="M14.5833 16.9587C14.5012 16.9587 14.42 16.9425 14.3442 16.9111C14.2684 16.8796 14.1996 16.8335 14.1416 16.7754L13.3083 15.942C13.2469 15.8848 13.1976 15.8158 13.1635 15.7391C13.1293 15.6625 13.111 15.5797 13.1095 15.4958C13.108 15.4119 13.1234 15.3285 13.1549 15.2507C13.1863 15.1729 13.2331 15.1022 13.2924 15.0428C13.3518 14.9835 13.4225 14.9367 13.5003 14.9053C13.5781 14.8738 13.6615 14.8584 13.7454 14.8599C13.8293 14.8613 13.9121 14.8797 13.9887 14.9139C14.0654 14.948 14.1344 14.9973 14.1916 15.0587L14.5833 15.4504L15.8083 14.2254C15.9268 14.115 16.0835 14.0549 16.2454 14.0577C16.4073 14.0606 16.5618 14.1262 16.6763 14.2407C16.7908 14.3552 16.8564 14.5097 16.8593 14.6716C16.8621 14.8335 16.802 14.9902 16.6916 15.1087L15.025 16.7754C14.967 16.8335 14.8982 16.8796 14.8224 16.9111C14.7466 16.9425 14.6654 16.9587 14.5833 16.9587Z" fill="black" stroke="white" stroke-width="0.2"/>
</svg>
