<svg width="20" height="20" viewBox="0 0 20 20" fill="none" xmlns="http://www.w3.org/2000/svg">
<g id="Frame" clip-path="url(#clip0_886_7017)">
<g id="Group">
<path id="Vector" d="M10 19.9C7.35543 19.9 4.86961 18.8704 2.99962 17.0004C1.12962 15.1304 0.1 12.6446 0.1 10C0.1 7.35543 1.12966 4.86965 2.99962 2.99962C4.86957 1.12958 7.35543 0.1 10 0.1C12.6446 0.1 15.1304 1.12962 17.0004 2.99962C18.8704 4.86961 19.9 7.35543 19.9 10C19.9 12.6446 18.8703 15.1303 17.0004 17.0004C15.1304 18.8704 12.6446 19.9 10 19.9ZM10 1.15C5.12001 1.15 1.15 5.12001 1.15 10C1.15 14.88 5.12001 18.85 10 18.85C14.88 18.85 18.85 14.88 18.85 10C18.85 5.12001 14.88 1.15 10 1.15Z" fill="#E21B33" stroke="white" stroke-width="0.2"/>
<path id="Vector_2" d="M10.525 5.07086V5.15063L10.6028 5.16836C11.8093 5.44333 12.7125 6.52434 12.7125 7.8125C12.7125 8.10243 12.4775 8.3375 12.1875 8.3375C11.8975 8.3375 11.6625 8.10243 11.6625 7.8125C11.6625 6.89571 10.9168 6.15 10 6.15C9.08321 6.15 8.3375 6.89571 8.3375 7.8125C8.3375 8.72929 9.08321 9.475 10 9.475C11.4956 9.475 12.7125 10.6919 12.7125 12.1875C12.7125 13.4757 11.8093 14.5567 10.6028 14.8316L10.525 14.8494V14.9291V15.625C10.525 15.9149 10.29 16.15 10 16.15C9.71004 16.15 9.475 15.9149 9.475 15.625V14.9291V14.8494L9.39722 14.8316C8.19073 14.5567 7.2875 13.4757 7.2875 12.1875C7.2875 11.8976 7.52254 11.6625 7.8125 11.6625C8.10246 11.6625 8.3375 11.8976 8.3375 12.1875C8.3375 13.1043 9.08321 13.85 10 13.85C10.9168 13.85 11.6625 13.1043 11.6625 12.1875C11.6625 11.2707 10.9168 10.525 10 10.525C8.50441 10.525 7.2875 9.30809 7.2875 7.8125C7.2875 6.52434 8.19073 5.44333 9.39722 5.16836L9.475 5.15063V5.07086V4.375C9.475 4.08507 9.71004 3.85 10 3.85C10.29 3.85 10.525 4.08507 10.525 4.375V5.07086Z" fill="#E21B33" stroke="white" stroke-width="0.2"/>
</g>
</g>
<defs>
<clipPath id="clip0_886_7017">
<rect width="20" height="20" fill="white"/>
</clipPath>
</defs>
</svg>
