<svg width="85" height="84" viewBox="0 0 85 84" fill="none" xmlns="http://www.w3.org/2000/svg">
<g clip-path="url(#clip0_2_1211)">
<path d="M42.5 0C19.4164 0 0.5 18.9164 0.5 42C0.5 65.0836 19.4164 84 42.5 84C65.5836 84 84.5 65.0836 84.5 42C84.5 18.9164 65.5836 0 42.5 0ZM10.5078 42C10.5078 24.3795 24.8795 10.0078 42.5 10.0078C49.1444 10.0078 55.5431 12.0748 61.0062 15.9631L42.5 34.4694L16.4634 60.5062C12.5748 55.0428 10.5078 48.6444 10.5078 42ZM42.5 73.9922C35.8556 73.9922 29.4569 71.9248 23.9937 68.0366L68.5367 23.4936C72.4252 28.9569 74.4922 35.3553 74.4922 42C74.4922 59.6201 60.1205 73.9922 42.5 73.9922Z" fill="#E21B33"/>
<path d="M84.5 42C84.5 65.0836 65.5836 84 42.5 84V73.9922C60.1205 73.9922 74.4922 59.6201 74.4922 42C74.4922 35.3553 72.4252 28.9569 68.5366 23.4937L42.5 49.5303V34.4694L61.0062 15.9631C55.5431 12.0748 49.1444 10.0078 42.5 10.0078V0C65.5836 0 84.5 18.9164 84.5 42Z" fill="#E21B33"/>
</g>
<defs>
<clipPath id="clip0_2_1211">
<rect width="84" height="84" fill="white" transform="translate(0.5)"/>
</clipPath>
</defs>
</svg>
