<svg width="20" height="20" viewBox="0 0 20 20" fill="none" xmlns="http://www.w3.org/2000/svg">
<g clip-path="url(#clip0_589_6061)">
<path d="M10 20C15.5228 20 20 15.5228 20 10C20 4.47715 15.5228 0 10 0C4.47715 0 0 4.47715 0 10C0 15.5228 4.47715 20 10 20Z" fill="#29A71A"/>
<path d="M14.4091 5.59079C13.3687 4.53999 11.987 3.89557 10.5133 3.77377C9.03959 3.65196 7.57087 4.06079 6.37205 4.92652C5.17323 5.79224 4.32324 7.05786 3.97539 8.49509C3.62753 9.93233 3.80472 11.4466 4.47499 12.7647L3.81704 15.959C3.81021 15.9908 3.81002 16.0236 3.81647 16.0555C3.82292 16.0874 3.83588 16.1176 3.85454 16.1442C3.88187 16.1846 3.92088 16.2157 3.96636 16.2334C4.01185 16.2511 4.06164 16.2544 4.10909 16.2431L7.23977 15.501C8.55416 16.1543 10.0577 16.3201 11.4829 15.9689C12.908 15.6177 14.1623 14.7723 15.0227 13.583C15.883 12.3938 16.2935 10.9379 16.1811 9.47441C16.0688 8.01092 15.4409 6.63476 14.4091 5.59079ZM13.4329 13.3817C12.7131 14.0995 11.7861 14.5734 10.7827 14.7365C9.77924 14.8996 8.74992 14.7437 7.83977 14.2908L7.4034 14.0749L5.48409 14.5294L5.48977 14.5056L5.88749 12.5737L5.67386 12.1522C5.20881 11.2388 5.04476 10.2017 5.20521 9.18947C5.36565 8.1772 5.84236 7.24168 6.56704 6.51692C7.47761 5.60663 8.71245 5.09526 9.99999 5.09526C11.2875 5.09526 12.5224 5.60663 13.4329 6.51692C13.4407 6.52582 13.4491 6.53417 13.4579 6.54192C14.3572 7.45456 14.8593 8.68571 14.8546 9.96696C14.8499 11.2482 14.3389 12.4757 13.4329 13.3817Z" fill="white"/>
<path d="M13.2625 11.9647C13.0273 12.3351 12.6557 12.7885 12.1886 12.901C11.3705 13.0988 10.1148 12.9079 8.55227 11.451L8.53295 11.434C7.15909 10.1601 6.80227 9.0999 6.88863 8.25899C6.93636 7.78172 7.33409 7.3499 7.66931 7.06808C7.72231 7.02285 7.78516 6.99064 7.85283 6.97404C7.9205 6.95744 7.99112 6.9569 8.05903 6.97248C8.12695 6.98805 8.19028 7.01929 8.24396 7.06372C8.29764 7.10814 8.34018 7.1645 8.36818 7.22831L8.87386 8.36467C8.90672 8.43835 8.9189 8.51959 8.90909 8.59967C8.89928 8.67975 8.86785 8.75565 8.81818 8.81922L8.5625 9.15104C8.50763 9.21955 8.47453 9.30291 8.46744 9.3904C8.46035 9.47789 8.47961 9.56549 8.52272 9.64194C8.6659 9.89308 9.00909 10.2624 9.38977 10.6044C9.81704 10.9908 10.2909 11.3442 10.5909 11.4647C10.6712 11.4975 10.7594 11.5055 10.8443 11.4876C10.9292 11.4698 11.0067 11.427 11.067 11.3647L11.3636 11.0658C11.4209 11.0094 11.492 10.9691 11.5699 10.9492C11.6477 10.9292 11.7295 10.9302 11.8068 10.9522L13.008 11.2931C13.0742 11.3134 13.1349 11.3486 13.1855 11.396C13.2361 11.4434 13.2751 11.5017 13.2997 11.5665C13.3242 11.6313 13.3337 11.7009 13.3272 11.7699C13.3208 11.8389 13.2986 11.9055 13.2625 11.9647Z" fill="white"/>
</g>
<defs>
<clipPath id="clip0_589_6061">
<rect width="20" height="20" fill="white"/>
</clipPath>
</defs>
</svg>
