<svg width="20" height="20" viewBox="0 0 20 20" fill="none" xmlns="http://www.w3.org/2000/svg">
<g clip-path="url(#clip0_886_9165)">
<path d="M10 20C15.5228 20 20 15.5228 20 10C20 4.47715 15.5228 0 10 0C4.47715 0 0 4.47715 0 10C0 15.5228 4.47715 20 10 20Z" fill="#29A71A"/>
<path d="M14.409 5.59103C13.3686 4.54023 11.9869 3.89582 10.5132 3.77401C9.0395 3.65221 7.57078 4.06104 6.37196 4.92676C5.17314 5.79248 4.32315 7.0581 3.97529 8.49534C3.62744 9.93257 3.80463 11.4468 4.4749 12.7649L3.81695 15.9592C3.81012 15.991 3.80993 16.0239 3.81638 16.0557C3.82283 16.0876 3.83579 16.1178 3.85445 16.1444C3.88178 16.1849 3.92079 16.216 3.96627 16.2336C4.01176 16.2513 4.06155 16.2547 4.10899 16.2433L7.23968 15.5013C8.55406 16.1546 10.0576 16.3204 11.4828 15.9691C12.9079 15.6179 14.1623 14.7725 15.0226 13.5833C15.8829 12.394 16.2934 10.9381 16.181 9.47466C16.0687 8.01117 15.4408 6.635 14.409 5.59103ZM13.4329 13.3819C12.713 14.0998 11.786 14.5736 10.7826 14.7367C9.77915 14.8998 8.74982 14.7439 7.83968 14.291L7.40331 14.0751L5.48399 14.5297L5.48968 14.5058L5.8874 12.574L5.67377 12.1524C5.20872 11.2391 5.04467 10.202 5.20511 9.18972C5.36556 8.17745 5.84227 7.24192 6.56695 6.51717C7.47752 5.60688 8.71236 5.0955 9.9999 5.0955C11.2874 5.0955 12.5223 5.60688 13.4329 6.51717C13.4406 6.52606 13.449 6.53441 13.4579 6.54217C14.3571 7.45481 14.8592 8.68596 14.8545 9.96721C14.8498 11.2485 14.3388 12.4759 13.4329 13.3819Z" fill="white"/>
<path d="M13.2625 11.9644C13.0272 12.3349 12.6556 12.7883 12.1886 12.9008C11.3704 13.0985 10.1147 12.9076 8.55224 11.4508L8.53292 11.4337C7.15906 10.1599 6.80224 9.09965 6.8886 8.25875C6.93633 7.78147 7.33406 7.34966 7.66928 7.06784C7.72228 7.0226 7.78513 6.9904 7.8528 6.9738C7.92047 6.9572 7.99109 6.95666 8.059 6.97223C8.12692 6.9878 8.19025 7.01905 8.24393 7.06347C8.29761 7.10789 8.34015 7.16426 8.36815 7.22806L8.87383 8.36443C8.90669 8.43811 8.91887 8.51935 8.90906 8.59943C8.89925 8.6795 8.86782 8.7554 8.81815 8.81897L8.56246 9.15079C8.5076 9.21931 8.4745 9.30267 8.46741 9.39016C8.46032 9.47764 8.47958 9.56525 8.52269 9.6417C8.66587 9.89284 9.00906 10.2622 9.38974 10.6042C9.81701 10.9906 10.2909 11.344 10.5909 11.4644C10.6711 11.4972 10.7594 11.5052 10.8443 11.4874C10.9291 11.4696 11.0067 11.4267 11.067 11.3644L11.3636 11.0656C11.4208 11.0091 11.492 10.9689 11.5699 10.9489C11.6477 10.929 11.7295 10.93 11.8068 10.9519L13.0079 11.2928C13.0742 11.3132 13.1349 11.3484 13.1855 11.3958C13.236 11.4432 13.2751 11.5015 13.2997 11.5663C13.3242 11.6311 13.3336 11.7007 13.3272 11.7697C13.3207 11.8387 13.2986 11.9053 13.2625 11.9644Z" fill="white"/>
</g>
<defs>
<clipPath id="clip0_886_9165">
<rect width="20" height="20" fill="white"/>
</clipPath>
</defs>
</svg>
